<?xml version="1.0" encoding="utf-8"?>
<!-- Generator: Adobe Illustrator 21.0.0, SVG Export Plug-In . SVG Version: 6.00 Build 0)  -->
<svg version="1.1" id="Layer_1" xmlns="http://www.w3.org/2000/svg" xmlns:xlink="http://www.w3.org/1999/xlink" x="0px" y="0px"
	 viewBox="0 0 300 200" style="enable-background:new 0 0 300 200;" xml:space="preserve">
<style type="text/css">
	.st0{fill:#FF0000;}
	.st1{fill:#336666;}
	.st2{fill:#FFFFFF;}
	.st3{fill:#0000FF;}
	.st4{fill:#336633;}
	.st5{fill:#FFFFCC;}
	.st6{fill:#999999;}
	.st7{fill:#FFFF99;}
	.st8{fill:#003333;}
	.st9{fill:#660066;}
	.st10{fill:#FF3300;}
	.st11{fill:#FFFF66;}
</style>
<title>arcade</title>
<g id="_Group_">
	<rect x="135.5" y="190.5" class="st0" width="9.7" height="9.5"/>
	<rect x="135.5" y="180.9" class="st1" width="9.7" height="9.5"/>
	<rect x="135.5" y="171.4" class="st1" width="9.7" height="9.5"/>
	<rect x="135.5" y="161.9" class="st1" width="9.7" height="9.5"/>
	<rect x="135.5" y="152.4" class="st1" width="9.7" height="9.5"/>
	<rect x="135.5" y="142.9" class="st1" width="9.7" height="9.5"/>
	<rect x="135.5" y="133.3" class="st0" width="9.7" height="9.5"/>
	<rect x="135.5" y="123.8" class="st1" width="9.7" height="9.5"/>
	<rect x="135.5" y="114.3" class="st2" width="9.7" height="9.5"/>
	<rect x="135.5" y="104.8" class="st2" width="9.7" height="9.5"/>
	<rect x="135.5" y="95.2" class="st3" width="9.7" height="9.5"/>
	<rect x="135.5" y="85.7" class="st3" width="9.7" height="9.5"/>
	<rect x="135.5" y="76.2" class="st3" width="9.7" height="9.5"/>
	<rect x="135.5" y="66.7" class="st4" width="9.7" height="9.5"/>
	<rect x="135.5" y="57.1" class="st3" width="9.7" height="9.5"/>
	<rect x="135.5" y="47.6" class="st3" width="9.7" height="9.5"/>
	<rect x="135.5" y="38.1" class="st4" width="9.7" height="9.5"/>
	<rect x="135.5" y="28.6" class="st5" width="9.7" height="9.5"/>
	<rect x="135.5" y="19" class="st3" width="9.7" height="9.5"/>
	<rect x="135.5" y="9.5" class="st6" width="9.7" height="9.5"/>
	<rect x="135.5" class="st3" width="9.7" height="9.5"/>
	<rect x="125.8" y="190.5" class="st0" width="9.7" height="9.5"/>
	<rect x="125.8" y="180.9" class="st1" width="9.7" height="9.5"/>
	<rect x="125.8" y="171.4" class="st1" width="9.7" height="9.5"/>
	<rect x="125.8" y="161.9" class="st1" width="9.7" height="9.5"/>
	<rect x="125.8" y="152.4" class="st1" width="9.7" height="9.5"/>
	<rect x="125.8" y="142.9" class="st1" width="9.7" height="9.5"/>
	<rect x="125.8" y="133.3" class="st0" width="9.7" height="9.5"/>
	<rect x="125.8" y="123.8" class="st1" width="9.7" height="9.5"/>
	<rect x="125.8" y="114.3" width="9.7" height="9.5"/>
	<rect x="125.8" y="104.8" width="9.7" height="9.5"/>
	<rect x="125.8" y="95.2" class="st6" width="9.7" height="9.5"/>
	<rect x="125.8" y="85.7" class="st6" width="9.7" height="9.5"/>
	<rect x="125.8" y="76.2" width="9.7" height="9.5"/>
	<rect x="125.8" y="66.7" width="9.7" height="9.5"/>
	<rect x="125.8" y="57.1" width="9.7" height="9.5"/>
	<rect x="125.8" y="47.6" width="9.7" height="9.5"/>
	<rect x="125.8" y="38.1" width="9.7" height="9.5"/>
	<rect x="125.8" y="28.6" class="st6" width="9.7" height="9.5"/>
	<rect x="125.8" y="19" class="st6" width="9.7" height="9.5"/>
	<rect x="125.8" y="9.5" class="st6" width="9.7" height="9.5"/>
	<rect x="125.8" class="st3" width="9.7" height="9.5"/>
	<rect x="116.1" y="190.5" class="st0" width="9.7" height="9.5"/>
	<rect x="116.1" y="180.9" class="st1" width="9.7" height="9.5"/>
	<rect x="116.1" y="171.4" class="st1" width="9.7" height="9.5"/>
	<rect x="116.1" y="161.9" class="st1" width="9.7" height="9.5"/>
	<rect x="116.1" y="152.4" width="9.7" height="9.5"/>
	<rect x="116.1" y="142.9" width="9.7" height="9.5"/>
	<rect x="116.1" y="133.3" width="9.7" height="9.5"/>
	<rect x="116.1" y="123.8" width="9.7" height="9.5"/>
	<rect x="116.1" y="114.3" width="9.7" height="9.5"/>
	<rect x="116.1" y="104.8" width="9.7" height="9.5"/>
	<rect x="116.1" y="95.2" width="9.7" height="9.5"/>
	<rect x="116.1" y="85.7" width="9.7" height="9.5"/>
	<rect x="116.1" y="76.2" width="9.7" height="9.5"/>
	<rect x="116.1" y="66.7" class="st7" width="9.7" height="9.5"/>
	<rect x="116.1" y="57.1" class="st7" width="9.7" height="9.5"/>
	<rect x="116.1" y="47.6" class="st7" width="9.7" height="9.5"/>
	<rect x="116.1" y="38.1" width="9.7" height="9.5"/>
	<rect x="116.1" y="28.6" width="9.7" height="9.5"/>
	<rect x="116.1" y="19" class="st3" width="9.7" height="9.5"/>
	<rect x="116.1" y="9.5" class="st6" width="9.7" height="9.5"/>
	<rect x="116.1" class="st3" width="9.7" height="9.5"/>
	<rect x="106.4" y="190.5" class="st1" width="9.7" height="9.5"/>
	<rect x="106.4" y="180.9" class="st1" width="9.7" height="9.5"/>
	<rect x="106.4" y="171.4" class="st1" width="9.7" height="9.5"/>
	<rect x="106.4" y="161.9" width="9.7" height="9.5"/>
	<rect x="106.4" y="152.4" width="9.7" height="9.5"/>
	<rect x="106.4" y="142.9" class="st2" width="9.7" height="9.5"/>
	<rect x="106.4" y="133.3" class="st2" width="9.7" height="9.5"/>
	<rect x="106.4" y="123.8" width="9.7" height="9.5"/>
	<rect x="106.4" y="114.3" width="9.7" height="9.5"/>
	<rect x="106.4" y="104.8" width="9.7" height="9.5"/>
	<rect x="106.4" y="95.2" class="st7" width="9.7" height="9.5"/>
	<rect x="106.4" y="85.7" class="st8" width="9.7" height="9.5"/>
	<rect x="106.4" y="76.2" class="st8" width="9.7" height="9.5"/>
	<rect x="106.4" y="66.7" class="st8" width="9.7" height="9.5"/>
	<rect x="106.4" y="57.1" class="st5" width="9.7" height="9.5"/>
	<rect x="106.4" y="47.6" class="st7" width="9.7" height="9.5"/>
	<rect x="106.4" y="38.1" class="st7" width="9.7" height="9.5"/>
	<rect x="106.4" y="28.6" width="9.7" height="9.5"/>
	<rect x="106.4" y="19" class="st3" width="9.7" height="9.5"/>
	<rect x="106.4" y="9.5" class="st6" width="9.7" height="9.5"/>
	<rect x="106.4" class="st3" width="9.7" height="9.5"/>
	<rect x="96.8" y="190.5" class="st1" width="9.7" height="9.5"/>
	<rect x="96.8" y="180.9" class="st1" width="9.7" height="9.5"/>
	<rect x="96.8" y="171.4" width="9.7" height="9.5"/>
	<rect x="96.8" y="161.9" width="9.7" height="9.5"/>
	<rect x="96.8" y="152.4" class="st2" width="9.7" height="9.5"/>
	<rect x="96.8" y="142.9" class="st2" width="9.7" height="9.5"/>
	<rect x="96.8" y="133.3" class="st2" width="9.7" height="9.5"/>
	<rect x="96.8" y="123.8" width="9.7" height="9.5"/>
	<rect x="96.8" y="114.3" class="st7" width="9.7" height="9.5"/>
	<rect x="96.8" y="104.8" class="st7" width="9.7" height="9.5"/>
	<rect x="96.8" y="95.2" class="st8" width="9.7" height="9.5"/>
	<rect x="96.8" y="85.7" class="st7" width="9.7" height="9.5"/>
	<rect x="96.8" y="76.2" class="st7" width="9.7" height="9.5"/>
	<rect x="96.8" y="66.7" class="st7" width="9.7" height="9.5"/>
	<rect x="96.8" y="57.1" class="st7" width="9.7" height="9.5"/>
	<rect x="96.8" y="47.6" class="st7" width="9.7" height="9.5"/>
	<rect x="96.8" y="38.1" class="st7" width="9.7" height="9.5"/>
	<rect x="96.8" y="28.6" width="9.7" height="9.5"/>
	<rect x="96.8" y="19" class="st6" width="9.7" height="9.5"/>
	<rect x="96.8" y="9.5" class="st6" width="9.7" height="9.5"/>
	<rect x="96.8" class="st3" width="9.7" height="9.5"/>
	<rect x="87.1" y="190.5" class="st1" width="9.7" height="9.5"/>
	<rect x="87.1" y="180.9" width="9.7" height="9.5"/>
	<rect x="87.1" y="171.4" width="9.7" height="9.5"/>
	<rect x="87.1" y="161.9" class="st2" width="9.7" height="9.5"/>
	<rect x="87.1" y="152.4" class="st2" width="9.7" height="9.5"/>
	<rect x="87.1" y="142.9" class="st2" width="9.7" height="9.5"/>
	<rect x="87.1" y="133.3" class="st2" width="9.7" height="9.5"/>
	<rect x="87.1" y="123.8" width="9.7" height="9.5"/>
	<rect x="87.1" y="114.3" class="st8" width="9.7" height="9.5"/>
	<rect x="87.1" y="104.8" class="st8" width="9.7" height="9.5"/>
	<rect x="87.1" y="95.2" class="st8" width="9.7" height="9.5"/>
	<rect x="87.1" y="85.7" class="st7" width="9.7" height="9.5"/>
	<rect x="87.1" y="76.2" class="st9" width="9.7" height="9.5"/>
	<rect x="87.1" y="66.7" class="st9" width="9.7" height="9.5"/>
	<rect x="87.1" y="57.1" class="st9" width="9.7" height="9.5"/>
	<rect x="87.1" y="47.6" class="st7" width="9.7" height="9.5"/>
	<rect x="87.1" y="38.1" class="st7" width="9.7" height="9.5"/>
	<rect x="87.1" y="28.6" width="9.7" height="9.5"/>
	<rect x="87.1" y="19" class="st6" width="9.7" height="9.5"/>
	<rect x="87.1" y="9.5" class="st3" width="9.7" height="9.5"/>
	<rect x="87.1" class="st3" width="9.7" height="9.5"/>
	<rect x="77.4" y="190.5" class="st1" width="9.7" height="9.5"/>
	<rect x="77.4" y="180.9" width="9.7" height="9.5"/>
	<rect x="77.4" y="171.4" class="st2" width="9.7" height="9.5"/>
	<rect x="77.4" y="161.9" class="st2" width="9.7" height="9.5"/>
	<rect x="77.4" y="152.4" class="st2" width="9.7" height="9.5"/>
	<rect x="77.4" y="142.9" class="st2" width="9.7" height="9.5"/>
	<rect x="77.4" y="133.3" class="st2" width="9.7" height="9.5"/>
	<rect x="77.4" y="123.8" width="9.7" height="9.5"/>
	<rect x="77.4" y="114.3" class="st7" width="9.7" height="9.5"/>
	<rect x="77.4" y="104.8" class="st7" width="9.7" height="9.5"/>
	<rect x="77.4" y="95.2" class="st8" width="9.7" height="9.5"/>
	<rect x="77.4" y="85.7" class="st7" width="9.7" height="9.5"/>
	<rect x="77.4" y="76.2" class="st7" width="9.7" height="9.5"/>
	<rect x="77.4" y="66.7" class="st7" width="9.7" height="9.5"/>
	<rect x="77.4" y="57.1" class="st7" width="9.7" height="9.5"/>
	<rect x="77.4" y="47.6" class="st7" width="9.7" height="9.5"/>
	<rect x="77.4" y="38.1" class="st7" width="9.7" height="9.5"/>
	<rect x="77.4" y="28.6" width="9.7" height="9.5"/>
	<rect x="77.4" y="19" class="st6" width="9.7" height="9.5"/>
	<rect x="77.4" y="9.5" class="st3" width="9.7" height="9.5"/>
	<rect x="77.4" class="st3" width="9.7" height="9.5"/>
	<rect x="67.7" y="190.5" width="9.7" height="9.5"/>
	<rect x="67.7" y="180.9" width="9.7" height="9.5"/>
	<rect x="67.7" y="171.4" class="st2" width="9.7" height="9.5"/>
	<rect x="67.7" y="161.9" class="st2" width="9.7" height="9.5"/>
	<rect x="67.7" y="152.4" class="st2" width="9.7" height="9.5"/>
	<rect x="67.7" y="142.9" width="9.7" height="9.5"/>
	<rect x="67.7" y="133.3" width="9.7" height="9.5"/>
	<rect x="67.7" y="123.8" width="9.7" height="9.5"/>
	<rect x="67.7" y="114.3" class="st7" width="9.7" height="9.5"/>
	<rect x="67.7" y="104.8" class="st7" width="9.7" height="9.5"/>
	<rect x="67.7" y="95.2" class="st8" width="9.7" height="9.5"/>
	<rect x="67.7" y="85.7" class="st7" width="9.7" height="9.5"/>
	<rect x="67.7" y="76.2" class="st7" width="9.7" height="9.5"/>
	<rect x="67.7" y="66.7" class="st7" width="9.7" height="9.5"/>
	<rect x="67.7" y="57.1" class="st7" width="9.7" height="9.5"/>
	<rect x="67.7" y="47.6" class="st7" width="9.7" height="9.5"/>
	<rect x="67.7" y="38.1" class="st7" width="9.7" height="9.5"/>
	<rect x="67.7" y="28.6" width="9.7" height="9.5"/>
	<rect x="67.7" y="19" class="st6" width="9.7" height="9.5"/>
	<rect x="67.7" y="9.5" class="st3" width="9.7" height="9.5"/>
	<rect x="67.7" class="st3" width="9.7" height="9.5"/>
	<rect x="58.1" y="190.5" width="9.7" height="9.5"/>
	<rect x="58.1" y="180.9" width="9.7" height="9.5"/>
	<rect x="58.1" y="171.4" width="9.7" height="9.5"/>
	<rect x="58.1" y="161.9" width="9.7" height="9.5"/>
	<rect x="58.1" y="152.4" width="9.7" height="9.5"/>
	<rect x="58.1" y="142.9" width="9.7" height="9.5"/>
	<rect x="58.1" y="133.3" class="st1" width="9.7" height="9.5"/>
	<rect x="58.1" y="123.8" width="9.7" height="9.5"/>
	<rect x="58.1" y="114.3" class="st7" width="9.7" height="9.5"/>
	<rect x="58.1" y="104.8" class="st7" width="9.7" height="9.5"/>
	<rect x="58.1" y="95.2" class="st9" width="9.7" height="9.5"/>
	<rect x="58.1" y="85.7" class="st8" width="9.7" height="9.5"/>
	<rect x="58.1" y="76.2" width="9.7" height="9.5"/>
	<rect x="58.1" y="66.7" width="9.7" height="9.5"/>
	<rect x="58.1" y="57.1" width="9.7" height="9.5"/>
	<rect x="58.1" y="47.6" width="9.7" height="9.5"/>
	<rect x="58.1" y="38.1" class="st7" width="9.7" height="9.5"/>
	<rect x="58.1" y="28.6" width="9.7" height="9.5"/>
	<rect x="58.1" y="19" class="st6" width="9.7" height="9.5"/>
	<rect x="58.1" y="9.5" class="st3" width="9.7" height="9.5"/>
	<rect x="58.1" class="st3" width="9.7" height="9.5"/>
	<rect x="48.4" y="190.5" class="st7" width="9.7" height="9.5"/>
	<rect x="48.4" y="180.9" width="9.7" height="9.5"/>
	<rect x="48.4" y="171.4" class="st1" width="9.7" height="9.5"/>
	<rect x="48.4" y="161.9" class="st0" width="9.7" height="9.5"/>
	<rect x="48.4" y="152.4" class="st0" width="9.7" height="9.5"/>
	<rect x="48.4" y="142.9" class="st1" width="9.7" height="9.5"/>
	<rect x="48.4" y="133.3" width="9.7" height="9.5"/>
	<rect x="48.4" y="123.8" width="9.7" height="9.5"/>
	<rect x="48.4" y="114.3" class="st7" width="9.7" height="9.5"/>
	<rect x="48.4" y="104.8" class="st7" width="9.7" height="9.5"/>
	<rect x="48.4" y="95.2" class="st7" width="9.7" height="9.5"/>
	<rect x="48.4" y="85.7" class="st8" width="9.7" height="9.5"/>
	<rect x="48.4" y="76.2" width="9.7" height="9.5"/>
	<rect x="48.4" y="66.7" class="st10" width="9.7" height="9.5"/>
	<rect x="48.4" y="57.1" class="st10" width="9.7" height="9.5"/>
	<rect x="48.4" y="47.6" width="9.7" height="9.5"/>
	<rect x="48.4" y="38.1" class="st7" width="9.7" height="9.5"/>
	<rect x="48.4" y="28.6" width="9.7" height="9.5"/>
	<rect x="48.4" y="19" class="st6" width="9.7" height="9.5"/>
	<rect x="48.4" y="9.5" class="st3" width="9.7" height="9.5"/>
	<rect x="48.4" class="st3" width="9.7" height="9.5"/>
	<rect x="38.7" y="190.5" class="st7" width="9.7" height="9.5"/>
	<rect x="38.7" y="180.9" class="st7" width="9.7" height="9.5"/>
	<rect x="38.7" y="171.4" class="st1" width="9.7" height="9.5"/>
	<rect x="38.7" y="161.9" class="st0" width="9.7" height="9.5"/>
	<rect x="38.7" y="152.4" class="st1" width="9.7" height="9.5"/>
	<rect x="38.7" y="142.9" class="st1" width="9.7" height="9.5"/>
	<rect x="38.7" y="133.3" width="9.7" height="9.5"/>
	<rect x="38.7" y="123.8" width="9.7" height="9.5"/>
	<rect x="38.7" y="114.3" class="st7" width="9.7" height="9.5"/>
	<rect x="38.7" y="104.8" class="st9" width="9.7" height="9.5"/>
	<rect x="38.7" y="95.2" class="st7" width="9.7" height="9.5"/>
	<rect x="38.7" y="85.7" class="st8" width="9.7" height="9.5"/>
	<rect x="38.7" y="76.2" width="9.7" height="9.5"/>
	<rect x="38.7" y="66.7" class="st10" width="9.7" height="9.5"/>
	<rect x="38.7" y="57.1" class="st10" width="9.7" height="9.5"/>
	<rect x="38.7" y="47.6" width="9.7" height="9.5"/>
	<rect x="38.7" y="38.1" class="st7" width="9.7" height="9.5"/>
	<rect x="38.7" y="28.6" width="9.7" height="9.5"/>
	<rect x="38.7" y="19" class="st3" width="9.7" height="9.5"/>
	<rect x="38.7" y="9.5" class="st3" width="9.7" height="9.5"/>
	<rect x="38.7" class="st3" width="9.7" height="9.5"/>
	<rect x="29" y="190.5" class="st7" width="9.7" height="9.5"/>
	<rect x="29" y="180.9" class="st7" width="9.7" height="9.5"/>
	<rect x="29" y="171.4" class="st0" width="9.7" height="9.5"/>
	<rect x="29" y="161.9" width="9.7" height="9.5"/>
	<rect x="29" y="152.4" width="9.7" height="9.5"/>
	<rect x="29" y="142.9" width="9.7" height="9.5"/>
	<rect x="29" y="133.3" class="st2" width="9.7" height="9.5"/>
	<rect x="29" y="123.8" class="st7" width="9.7" height="9.5"/>
	<rect x="29" y="114.3" class="st7" width="9.7" height="9.5"/>
	<rect x="29" y="104.8" class="st7" width="9.7" height="9.5"/>
	<rect x="29" y="95.2" class="st8" width="9.7" height="9.5"/>
	<rect x="29" y="85.7" class="st8" width="9.7" height="9.5"/>
	<rect x="29" y="76.2" width="9.7" height="9.5"/>
	<rect x="29" y="66.7" width="9.7" height="9.5"/>
	<rect x="29" y="57.1" width="9.7" height="9.5"/>
	<rect x="29" y="47.6" width="9.7" height="9.5"/>
	<rect x="29" y="38.1" class="st7" width="9.7" height="9.5"/>
	<rect x="29" y="28.6" width="9.7" height="9.5"/>
	<rect x="29" y="19" class="st3" width="9.7" height="9.5"/>
	<rect x="29" y="9.5" class="st3" width="9.7" height="9.5"/>
	<rect x="29" class="st11" width="9.7" height="9.5"/>
	<rect x="19.4" y="190.5" class="st8" width="9.7" height="9.5"/>
	<rect x="19.4" y="180.9" class="st8" width="9.7" height="9.5"/>
	<rect x="19.4" y="171.4" width="9.7" height="9.5"/>
	<rect x="19.4" y="161.9" width="9.7" height="9.5"/>
	<rect x="19.4" y="152.4" class="st7" width="9.7" height="9.5"/>
	<rect x="19.4" y="142.9" class="st7" width="9.7" height="9.5"/>
	<rect x="19.4" y="133.3" class="st7" width="9.7" height="9.5"/>
	<rect x="19.4" y="123.8" class="st9" width="9.7" height="9.5"/>
	<rect x="19.4" y="114.3" class="st5" width="9.7" height="9.5"/>
	<rect x="19.4" y="104.8" class="st7" width="9.7" height="9.5"/>
	<rect x="19.4" y="95.2" class="st8" width="9.7" height="9.5"/>
	<rect x="19.4" y="85.7" class="st7" width="9.7" height="9.5"/>
	<rect x="19.4" y="76.2" class="st7" width="9.7" height="9.5"/>
	<rect x="19.4" y="66.7" class="st7" width="9.7" height="9.5"/>
	<rect x="19.4" y="57.1" class="st7" width="9.7" height="9.5"/>
	<rect x="19.4" y="47.6" class="st7" width="9.7" height="9.5"/>
	<rect x="19.4" y="38.1" class="st7" width="9.7" height="9.5"/>
	<rect x="19.4" y="28.6" width="9.7" height="9.5"/>
	<rect x="19.4" y="19" class="st3" width="9.7" height="9.5"/>
	<rect x="19.4" y="9.5" class="st3" width="9.7" height="9.5"/>
	<rect x="19.4" class="st1" width="9.7" height="9.5"/>
	<rect x="9.7" y="190.5" class="st7" width="9.7" height="9.5"/>
	<rect x="9.7" y="180.9" class="st8" width="9.7" height="9.5"/>
	<rect x="9.7" y="171.4" class="st8" width="9.7" height="9.5"/>
	<rect x="9.7" y="161.9" class="st8" width="9.7" height="9.5"/>
	<rect x="9.7" y="152.4" class="st7" width="9.7" height="9.5"/>
	<rect x="9.7" y="142.9" class="st9" width="9.7" height="9.5"/>
	<rect x="9.7" y="133.3" class="st9" width="9.7" height="9.5"/>
	<rect x="9.7" y="123.8" class="st7" width="9.7" height="9.5"/>
	<rect x="9.7" y="114.3" class="st5" width="9.7" height="9.5"/>
	<rect x="9.7" y="104.8" class="st7" width="9.7" height="9.5"/>
	<rect x="9.7" y="95.2" class="st7" width="9.7" height="9.5"/>
	<rect x="9.7" y="85.7" class="st7" width="9.7" height="9.5"/>
	<rect x="9.7" y="76.2" class="st7" width="9.7" height="9.5"/>
	<rect x="9.7" y="66.7" class="st9" width="9.7" height="9.5"/>
	<rect x="9.7" y="57.1" class="st9" width="9.7" height="9.5"/>
	<rect x="9.7" y="47.6" class="st7" width="9.7" height="9.5"/>
	<rect x="9.7" y="38.1" width="9.7" height="9.5"/>
	<rect x="9.7" y="28.6" class="st3" width="9.7" height="9.5"/>
	<rect x="9.7" y="19" class="st3" width="9.7" height="9.5"/>
	<rect x="9.7" y="9.5" class="st1" width="9.7" height="9.5"/>
	<rect x="9.7" class="st1" width="9.7" height="9.5"/>
	<rect y="190.5" class="st7" width="9.7" height="9.5"/>
	<rect y="180.9" class="st7" width="9.7" height="9.5"/>
	<rect y="171.4" class="st7" width="9.7" height="9.5"/>
	<rect y="161.9" class="st7" width="9.7" height="9.5"/>
	<rect y="152.4" class="st7" width="9.7" height="9.5"/>
	<rect y="142.9" class="st7" width="9.7" height="9.5"/>
	<rect y="133.3" class="st7" width="9.7" height="9.5"/>
	<rect y="123.8" class="st7" width="9.7" height="9.5"/>
	<rect y="114.3" class="st7" width="9.7" height="9.5"/>
	<rect y="104.8" class="st7" width="9.7" height="9.5"/>
	<rect y="95.2" class="st7" width="9.7" height="9.5"/>
	<rect y="85.7" class="st7" width="9.7" height="9.5"/>
	<rect y="76.2" class="st7" width="9.7" height="9.5"/>
	<rect y="66.7" class="st7" width="9.7" height="9.5"/>
	<rect y="57.1" class="st9" width="9.7" height="9.5"/>
	<rect y="47.6" class="st7" width="9.7" height="9.5"/>
	<rect y="38.1" width="9.7" height="9.5"/>
	<rect y="28.6" class="st3" width="9.7" height="9.5"/>
	<rect y="19" class="st3" width="9.7" height="9.5"/>
	<rect y="9.5" class="st1" width="9.7" height="9.5"/>
	<rect class="st1" width="9.7" height="9.5"/>
	<g id="_Group__1_">
		<rect x="154.8" y="190.5" class="st0" width="9.7" height="9.5"/>
		<rect x="154.8" y="181" class="st1" width="9.7" height="9.5"/>
		<rect x="154.8" y="171.5" class="st1" width="9.7" height="9.5"/>
		<rect x="154.8" y="161.9" class="st1" width="9.7" height="9.5"/>
		<rect x="154.8" y="152.4" class="st1" width="9.7" height="9.5"/>
		<rect x="154.8" y="142.9" class="st1" width="9.7" height="9.5"/>
		<rect x="154.8" y="133.4" class="st0" width="9.7" height="9.5"/>
		<rect x="154.8" y="123.8" class="st1" width="9.7" height="9.5"/>
		<rect x="154.8" y="114.3" class="st2" width="9.7" height="9.5"/>
		<rect x="154.8" y="104.8" class="st2" width="9.7" height="9.5"/>
		<rect x="154.8" y="95.3" class="st3" width="9.7" height="9.5"/>
		<rect x="154.8" y="85.7" class="st3" width="9.7" height="9.5"/>
		<rect x="154.8" y="76.2" class="st3" width="9.7" height="9.5"/>
		<rect x="154.8" y="66.7" class="st4" width="9.7" height="9.5"/>
		<rect x="154.8" y="57.2" class="st3" width="9.7" height="9.5"/>
		<rect x="154.8" y="47.6" class="st3" width="9.7" height="9.5"/>
		<rect x="154.8" y="38.1" class="st4" width="9.7" height="9.5"/>
		<rect x="154.8" y="28.6" class="st5" width="9.7" height="9.5"/>
		<rect x="154.8" y="19.1" class="st3" width="9.7" height="9.5"/>
		<rect x="154.8" y="9.5" class="st6" width="9.7" height="9.5"/>
		<rect x="154.8" y="0" class="st3" width="9.7" height="9.5"/>
		<rect x="164.5" y="190.5" class="st0" width="9.7" height="9.5"/>
		<rect x="164.5" y="181" class="st1" width="9.7" height="9.5"/>
		<rect x="164.5" y="171.5" class="st1" width="9.7" height="9.5"/>
		<rect x="164.5" y="161.9" class="st1" width="9.7" height="9.5"/>
		<rect x="164.5" y="152.4" class="st1" width="9.7" height="9.5"/>
		<rect x="164.5" y="142.9" class="st1" width="9.7" height="9.5"/>
		<rect x="164.5" y="133.4" class="st0" width="9.7" height="9.5"/>
		<rect x="164.5" y="123.8" class="st1" width="9.7" height="9.5"/>
		<rect x="164.5" y="114.3" width="9.7" height="9.5"/>
		<rect x="164.5" y="104.8" width="9.7" height="9.5"/>
		<rect x="164.5" y="95.3" class="st6" width="9.7" height="9.5"/>
		<rect x="164.5" y="85.7" class="st6" width="9.7" height="9.5"/>
		<rect x="164.5" y="76.2" width="9.7" height="9.5"/>
		<rect x="164.5" y="66.7" width="9.7" height="9.5"/>
		<rect x="164.5" y="57.2" width="9.7" height="9.5"/>
		<rect x="164.5" y="47.6" width="9.7" height="9.5"/>
		<rect x="164.5" y="38.1" width="9.7" height="9.5"/>
		<rect x="164.5" y="28.6" class="st6" width="9.7" height="9.5"/>
		<rect x="164.5" y="19.1" class="st6" width="9.7" height="9.5"/>
		<rect x="164.5" y="9.5" class="st6" width="9.7" height="9.5"/>
		<rect x="164.5" y="0" class="st3" width="9.7" height="9.5"/>
		<rect x="174.2" y="190.5" class="st0" width="9.7" height="9.5"/>
		<rect x="174.2" y="181" class="st1" width="9.7" height="9.5"/>
		<rect x="174.2" y="171.5" class="st1" width="9.7" height="9.5"/>
		<rect x="174.2" y="161.9" class="st1" width="9.7" height="9.5"/>
		<rect x="174.2" y="152.4" width="9.7" height="9.5"/>
		<rect x="174.2" y="142.9" width="9.7" height="9.5"/>
		<rect x="174.2" y="133.4" width="9.7" height="9.5"/>
		<rect x="174.2" y="123.8" width="9.7" height="9.5"/>
		<rect x="174.2" y="114.3" width="9.7" height="9.5"/>
		<rect x="174.2" y="104.8" width="9.7" height="9.5"/>
		<rect x="174.2" y="95.3" width="9.7" height="9.5"/>
		<rect x="174.2" y="85.7" width="9.7" height="9.5"/>
		<rect x="174.2" y="76.2" width="9.7" height="9.5"/>
		<rect x="174.2" y="66.7" class="st7" width="9.7" height="9.5"/>
		<rect x="174.2" y="57.2" class="st7" width="9.7" height="9.5"/>
		<rect x="174.2" y="47.6" class="st7" width="9.7" height="9.5"/>
		<rect x="174.2" y="38.1" width="9.7" height="9.5"/>
		<rect x="174.2" y="28.6" width="9.7" height="9.5"/>
		<rect x="174.2" y="19.1" class="st3" width="9.7" height="9.5"/>
		<rect x="174.2" y="9.5" class="st6" width="9.7" height="9.5"/>
		<rect x="174.2" y="0" class="st3" width="9.7" height="9.5"/>
		<rect x="183.9" y="190.5" class="st1" width="9.7" height="9.5"/>
		<rect x="183.9" y="181" class="st1" width="9.7" height="9.5"/>
		<rect x="183.9" y="171.5" class="st1" width="9.7" height="9.5"/>
		<rect x="183.9" y="161.9" width="9.7" height="9.5"/>
		<rect x="183.9" y="152.4" width="9.7" height="9.5"/>
		<rect x="183.9" y="142.9" class="st2" width="9.7" height="9.5"/>
		<rect x="183.9" y="133.4" class="st2" width="9.7" height="9.5"/>
		<rect x="183.9" y="123.8" width="9.7" height="9.5"/>
		<rect x="183.9" y="114.3" width="9.7" height="9.5"/>
		<rect x="183.9" y="104.8" width="9.7" height="9.5"/>
		<rect x="183.9" y="95.3" class="st7" width="9.7" height="9.5"/>
		<rect x="183.9" y="85.7" class="st8" width="9.7" height="9.5"/>
		<rect x="183.9" y="76.2" class="st8" width="9.7" height="9.5"/>
		<rect x="183.9" y="66.7" class="st8" width="9.7" height="9.5"/>
		<rect x="183.9" y="57.2" class="st5" width="9.7" height="9.5"/>
		<rect x="183.9" y="47.6" class="st7" width="9.7" height="9.5"/>
		<rect x="183.9" y="38.1" class="st7" width="9.7" height="9.5"/>
		<rect x="183.9" y="28.6" width="9.7" height="9.5"/>
		<rect x="183.9" y="19.1" class="st3" width="9.7" height="9.5"/>
		<rect x="183.9" y="9.5" class="st6" width="9.7" height="9.5"/>
		<rect x="183.9" y="0" class="st3" width="9.7" height="9.5"/>
		<rect x="193.5" y="190.5" class="st1" width="9.7" height="9.5"/>
		<rect x="193.5" y="181" class="st1" width="9.7" height="9.5"/>
		<rect x="193.5" y="171.5" width="9.7" height="9.5"/>
		<rect x="193.5" y="161.9" width="9.7" height="9.5"/>
		<rect x="193.5" y="152.4" class="st2" width="9.7" height="9.5"/>
		<rect x="193.5" y="142.9" class="st2" width="9.7" height="9.5"/>
		<rect x="193.5" y="133.4" class="st2" width="9.7" height="9.5"/>
		<rect x="193.5" y="123.8" width="9.7" height="9.5"/>
		<rect x="193.5" y="114.3" class="st7" width="9.7" height="9.5"/>
		<rect x="193.5" y="104.8" class="st7" width="9.7" height="9.5"/>
		<rect x="193.5" y="95.3" class="st8" width="9.7" height="9.5"/>
		<rect x="193.5" y="85.7" class="st7" width="9.7" height="9.5"/>
		<rect x="193.5" y="76.2" class="st7" width="9.7" height="9.5"/>
		<rect x="193.5" y="66.7" class="st7" width="9.7" height="9.5"/>
		<rect x="193.5" y="57.2" class="st7" width="9.7" height="9.5"/>
		<rect x="193.5" y="47.6" class="st7" width="9.7" height="9.5"/>
		<rect x="193.5" y="38.1" class="st7" width="9.7" height="9.5"/>
		<rect x="193.5" y="28.6" width="9.7" height="9.5"/>
		<rect x="193.5" y="19.1" class="st6" width="9.7" height="9.5"/>
		<rect x="193.5" y="9.5" class="st6" width="9.7" height="9.5"/>
		<rect x="193.5" y="0" class="st3" width="9.7" height="9.5"/>
		<rect x="203.2" y="190.5" class="st1" width="9.7" height="9.5"/>
		<rect x="203.2" y="181" width="9.7" height="9.5"/>
		<rect x="203.2" y="171.5" width="9.7" height="9.5"/>
		<rect x="203.2" y="161.9" class="st2" width="9.7" height="9.5"/>
		<rect x="203.2" y="152.4" class="st2" width="9.7" height="9.5"/>
		<rect x="203.2" y="142.9" class="st2" width="9.7" height="9.5"/>
		<rect x="203.2" y="133.4" class="st2" width="9.7" height="9.5"/>
		<rect x="203.2" y="123.8" width="9.7" height="9.5"/>
		<rect x="203.2" y="114.3" class="st8" width="9.7" height="9.5"/>
		<rect x="203.2" y="104.8" class="st8" width="9.7" height="9.5"/>
		<rect x="203.2" y="95.3" class="st8" width="9.7" height="9.5"/>
		<rect x="203.2" y="85.7" class="st7" width="9.7" height="9.5"/>
		<rect x="203.2" y="76.2" class="st9" width="9.7" height="9.5"/>
		<rect x="203.2" y="66.7" class="st9" width="9.7" height="9.5"/>
		<rect x="203.2" y="57.2" class="st9" width="9.7" height="9.5"/>
		<rect x="203.2" y="47.6" class="st7" width="9.7" height="9.5"/>
		<rect x="203.2" y="38.1" class="st7" width="9.7" height="9.5"/>
		<rect x="203.2" y="28.6" width="9.7" height="9.5"/>
		<rect x="203.2" y="19.1" class="st6" width="9.7" height="9.5"/>
		<rect x="203.2" y="9.5" class="st3" width="9.7" height="9.5"/>
		<rect x="203.2" y="0" class="st3" width="9.7" height="9.5"/>
		<rect x="212.9" y="190.5" class="st1" width="9.7" height="9.5"/>
		<rect x="212.9" y="181" width="9.7" height="9.5"/>
		<rect x="212.9" y="171.5" class="st2" width="9.7" height="9.5"/>
		<rect x="212.9" y="161.9" class="st2" width="9.7" height="9.5"/>
		<rect x="212.9" y="152.4" class="st2" width="9.7" height="9.5"/>
		<rect x="212.9" y="142.9" class="st2" width="9.7" height="9.5"/>
		<rect x="212.9" y="133.4" class="st2" width="9.7" height="9.5"/>
		<rect x="212.9" y="123.8" width="9.7" height="9.5"/>
		<rect x="212.9" y="114.3" class="st7" width="9.7" height="9.5"/>
		<rect x="212.9" y="104.8" class="st7" width="9.7" height="9.5"/>
		<rect x="212.9" y="95.3" class="st8" width="9.7" height="9.5"/>
		<rect x="212.9" y="85.7" class="st7" width="9.7" height="9.5"/>
		<rect x="212.9" y="76.2" class="st7" width="9.7" height="9.5"/>
		<rect x="212.9" y="66.7" class="st7" width="9.7" height="9.5"/>
		<rect x="212.9" y="57.2" class="st7" width="9.7" height="9.5"/>
		<rect x="212.9" y="47.6" class="st7" width="9.7" height="9.5"/>
		<rect x="212.9" y="38.1" class="st7" width="9.7" height="9.5"/>
		<rect x="212.9" y="28.6" width="9.7" height="9.5"/>
		<rect x="212.9" y="19.1" class="st6" width="9.7" height="9.5"/>
		<rect x="212.9" y="9.5" class="st3" width="9.7" height="9.5"/>
		<rect x="212.9" y="0" class="st3" width="9.7" height="9.5"/>
		<rect x="222.6" y="190.5" width="9.7" height="9.5"/>
		<rect x="222.6" y="181" width="9.7" height="9.5"/>
		<rect x="222.6" y="171.5" class="st2" width="9.7" height="9.5"/>
		<rect x="222.6" y="161.9" class="st2" width="9.7" height="9.5"/>
		<rect x="222.6" y="152.4" class="st2" width="9.7" height="9.5"/>
		<rect x="222.6" y="142.9" width="9.7" height="9.5"/>
		<rect x="222.6" y="133.4" width="9.7" height="9.5"/>
		<rect x="222.6" y="123.8" width="9.7" height="9.5"/>
		<rect x="222.6" y="114.3" class="st7" width="9.7" height="9.5"/>
		<rect x="222.6" y="104.8" class="st7" width="9.7" height="9.5"/>
		<rect x="222.6" y="95.3" class="st8" width="9.7" height="9.5"/>
		<rect x="222.6" y="85.7" class="st7" width="9.7" height="9.5"/>
		<rect x="222.6" y="76.2" class="st7" width="9.7" height="9.5"/>
		<rect x="222.6" y="66.7" class="st7" width="9.7" height="9.5"/>
		<rect x="222.6" y="57.2" class="st7" width="9.7" height="9.5"/>
		<rect x="222.6" y="47.6" class="st7" width="9.7" height="9.5"/>
		<rect x="222.6" y="38.1" class="st7" width="9.7" height="9.5"/>
		<rect x="222.6" y="28.6" width="9.7" height="9.5"/>
		<rect x="222.6" y="19.1" class="st6" width="9.7" height="9.5"/>
		<rect x="222.6" y="9.5" class="st3" width="9.7" height="9.5"/>
		<rect x="222.6" y="0" class="st3" width="9.7" height="9.5"/>
		<rect x="232.3" y="190.5" width="9.7" height="9.5"/>
		<rect x="232.3" y="181" width="9.7" height="9.5"/>
		<rect x="232.3" y="171.5" width="9.7" height="9.5"/>
		<rect x="232.3" y="161.9" width="9.7" height="9.5"/>
		<rect x="232.3" y="152.4" width="9.7" height="9.5"/>
		<rect x="232.3" y="142.9" width="9.7" height="9.5"/>
		<rect x="232.3" y="133.4" class="st1" width="9.7" height="9.5"/>
		<rect x="232.3" y="123.8" width="9.7" height="9.5"/>
		<rect x="232.3" y="114.3" class="st7" width="9.7" height="9.5"/>
		<rect x="232.3" y="104.8" class="st7" width="9.7" height="9.5"/>
		<rect x="232.3" y="95.3" class="st9" width="9.7" height="9.5"/>
		<rect x="232.3" y="85.7" class="st8" width="9.7" height="9.5"/>
		<rect x="232.3" y="76.2" width="9.7" height="9.5"/>
		<rect x="232.3" y="66.7" width="9.7" height="9.5"/>
		<rect x="232.3" y="57.2" width="9.7" height="9.5"/>
		<rect x="232.3" y="47.6" width="9.7" height="9.5"/>
		<rect x="232.3" y="38.1" class="st7" width="9.7" height="9.5"/>
		<rect x="232.3" y="28.6" width="9.7" height="9.5"/>
		<rect x="232.3" y="19.1" class="st6" width="9.7" height="9.5"/>
		<rect x="232.3" y="9.5" class="st3" width="9.7" height="9.5"/>
		<rect x="232.3" y="0" class="st3" width="9.7" height="9.5"/>
		<rect x="241.9" y="190.5" class="st7" width="9.7" height="9.5"/>
		<rect x="241.9" y="181" width="9.7" height="9.5"/>
		<rect x="241.9" y="171.5" class="st1" width="9.7" height="9.5"/>
		<rect x="241.9" y="161.9" class="st0" width="9.7" height="9.5"/>
		<rect x="241.9" y="152.4" class="st0" width="9.7" height="9.5"/>
		<rect x="241.9" y="142.9" class="st1" width="9.7" height="9.5"/>
		<rect x="241.9" y="133.4" width="9.7" height="9.5"/>
		<rect x="241.9" y="123.8" width="9.7" height="9.5"/>
		<rect x="241.9" y="114.3" class="st7" width="9.7" height="9.5"/>
		<rect x="241.9" y="104.8" class="st7" width="9.7" height="9.5"/>
		<rect x="241.9" y="95.3" class="st7" width="9.7" height="9.5"/>
		<rect x="241.9" y="85.7" class="st8" width="9.7" height="9.5"/>
		<rect x="241.9" y="76.2" width="9.7" height="9.5"/>
		<rect x="241.9" y="66.7" class="st10" width="9.7" height="9.5"/>
		<rect x="241.9" y="57.2" class="st10" width="9.7" height="9.5"/>
		<rect x="241.9" y="47.6" width="9.7" height="9.5"/>
		<rect x="241.9" y="38.1" class="st7" width="9.7" height="9.5"/>
		<rect x="241.9" y="28.6" width="9.7" height="9.5"/>
		<rect x="241.9" y="19.1" class="st6" width="9.7" height="9.5"/>
		<rect x="241.9" y="9.5" class="st3" width="9.7" height="9.5"/>
		<rect x="241.9" y="0" class="st3" width="9.7" height="9.5"/>
		<rect x="251.6" y="190.5" class="st7" width="9.7" height="9.5"/>
		<rect x="251.6" y="181" class="st7" width="9.7" height="9.5"/>
		<rect x="251.6" y="171.5" class="st1" width="9.7" height="9.5"/>
		<rect x="251.6" y="161.9" class="st0" width="9.7" height="9.5"/>
		<rect x="251.6" y="152.4" class="st1" width="9.7" height="9.5"/>
		<rect x="251.6" y="142.9" class="st1" width="9.7" height="9.5"/>
		<rect x="251.6" y="133.4" width="9.7" height="9.5"/>
		<rect x="251.6" y="123.8" width="9.7" height="9.5"/>
		<rect x="251.6" y="114.3" class="st7" width="9.7" height="9.5"/>
		<rect x="251.6" y="104.8" class="st9" width="9.7" height="9.5"/>
		<rect x="251.6" y="95.3" class="st7" width="9.7" height="9.5"/>
		<rect x="251.6" y="85.7" class="st8" width="9.7" height="9.5"/>
		<rect x="251.6" y="76.2" width="9.7" height="9.5"/>
		<rect x="251.6" y="66.7" class="st10" width="9.7" height="9.5"/>
		<rect x="251.6" y="57.2" class="st10" width="9.7" height="9.5"/>
		<rect x="251.6" y="47.6" width="9.7" height="9.5"/>
		<rect x="251.6" y="38.1" class="st7" width="9.7" height="9.5"/>
		<rect x="251.6" y="28.6" width="9.7" height="9.5"/>
		<rect x="251.6" y="19.1" class="st3" width="9.7" height="9.5"/>
		<rect x="251.6" y="9.5" class="st3" width="9.7" height="9.5"/>
		<rect x="251.6" y="0" class="st3" width="9.7" height="9.5"/>
		<rect x="261.3" y="190.5" class="st7" width="9.7" height="9.5"/>
		<rect x="261.3" y="181" class="st7" width="9.7" height="9.5"/>
		<rect x="261.3" y="171.5" class="st0" width="9.7" height="9.5"/>
		<rect x="261.3" y="161.9" width="9.7" height="9.5"/>
		<rect x="261.3" y="152.4" width="9.7" height="9.5"/>
		<rect x="261.3" y="142.9" width="9.7" height="9.5"/>
		<rect x="261.3" y="133.4" class="st2" width="9.7" height="9.5"/>
		<rect x="261.3" y="123.8" class="st7" width="9.7" height="9.5"/>
		<rect x="261.3" y="114.3" class="st7" width="9.7" height="9.5"/>
		<rect x="261.3" y="104.8" class="st7" width="9.7" height="9.5"/>
		<rect x="261.3" y="95.3" class="st8" width="9.7" height="9.5"/>
		<rect x="261.3" y="85.7" class="st8" width="9.7" height="9.5"/>
		<rect x="261.3" y="76.2" width="9.7" height="9.5"/>
		<rect x="261.3" y="66.7" width="9.7" height="9.5"/>
		<rect x="261.3" y="57.2" width="9.7" height="9.5"/>
		<rect x="261.3" y="47.6" width="9.7" height="9.5"/>
		<rect x="261.3" y="38.1" class="st7" width="9.7" height="9.5"/>
		<rect x="261.3" y="28.6" width="9.7" height="9.5"/>
		<rect x="261.3" y="19.1" class="st3" width="9.7" height="9.5"/>
		<rect x="261.3" y="9.5" class="st3" width="9.7" height="9.5"/>
		<rect x="261.3" y="0" class="st11" width="9.7" height="9.5"/>
		<rect x="271" y="190.5" class="st8" width="9.7" height="9.5"/>
		<rect x="271" y="181" class="st8" width="9.7" height="9.5"/>
		<rect x="271" y="171.5" width="9.7" height="9.5"/>
		<rect x="271" y="161.9" width="9.7" height="9.5"/>
		<rect x="271" y="152.4" class="st7" width="9.7" height="9.5"/>
		<rect x="271" y="142.9" class="st7" width="9.7" height="9.5"/>
		<rect x="271" y="133.4" class="st7" width="9.7" height="9.5"/>
		<rect x="271" y="123.8" class="st9" width="9.7" height="9.5"/>
		<rect x="271" y="114.3" class="st5" width="9.7" height="9.5"/>
		<rect x="271" y="104.8" class="st7" width="9.7" height="9.5"/>
		<rect x="271" y="95.3" class="st8" width="9.7" height="9.5"/>
		<rect x="271" y="85.7" class="st7" width="9.7" height="9.5"/>
		<rect x="271" y="76.2" class="st7" width="9.7" height="9.5"/>
		<rect x="271" y="66.7" class="st7" width="9.7" height="9.5"/>
		<rect x="271" y="57.2" class="st7" width="9.7" height="9.5"/>
		<rect x="271" y="47.6" class="st7" width="9.7" height="9.5"/>
		<rect x="271" y="38.1" class="st7" width="9.7" height="9.5"/>
		<rect x="271" y="28.6" width="9.7" height="9.5"/>
		<rect x="271" y="19.1" class="st3" width="9.7" height="9.5"/>
		<rect x="271" y="9.5" class="st3" width="9.7" height="9.5"/>
		<rect x="271" y="0" class="st1" width="9.7" height="9.5"/>
		<rect x="280.6" y="190.5" class="st7" width="9.7" height="9.5"/>
		<rect x="280.6" y="181" class="st8" width="9.7" height="9.5"/>
		<rect x="280.6" y="171.5" class="st8" width="9.7" height="9.5"/>
		<rect x="280.6" y="161.9" class="st8" width="9.7" height="9.5"/>
		<rect x="280.6" y="152.4" class="st7" width="9.7" height="9.5"/>
		<rect x="280.6" y="142.9" class="st9" width="9.7" height="9.5"/>
		<rect x="280.6" y="133.4" class="st9" width="9.7" height="9.5"/>
		<rect x="280.6" y="123.8" class="st7" width="9.7" height="9.5"/>
		<rect x="280.6" y="114.3" class="st5" width="9.7" height="9.5"/>
		<rect x="280.6" y="104.8" class="st7" width="9.7" height="9.5"/>
		<rect x="280.6" y="95.3" class="st7" width="9.7" height="9.5"/>
		<rect x="280.6" y="85.7" class="st7" width="9.7" height="9.5"/>
		<rect x="280.6" y="76.2" class="st7" width="9.7" height="9.5"/>
		<rect x="280.6" y="66.7" class="st9" width="9.7" height="9.5"/>
		<rect x="280.6" y="57.2" class="st9" width="9.7" height="9.5"/>
		<rect x="280.6" y="47.6" class="st7" width="9.7" height="9.5"/>
		<rect x="280.6" y="38.1" width="9.7" height="9.5"/>
		<rect x="280.6" y="28.6" class="st3" width="9.7" height="9.5"/>
		<rect x="280.6" y="19.1" class="st3" width="9.7" height="9.5"/>
		<rect x="280.6" y="9.5" class="st1" width="9.7" height="9.5"/>
		<rect x="280.6" y="0" class="st1" width="9.7" height="9.5"/>
		<rect x="290.3" y="190.5" class="st7" width="9.7" height="9.5"/>
		<rect x="290.3" y="181" class="st7" width="9.7" height="9.5"/>
		<rect x="290.3" y="171.5" class="st7" width="9.7" height="9.5"/>
		<rect x="290.3" y="161.9" class="st7" width="9.7" height="9.5"/>
		<rect x="290.3" y="152.4" class="st7" width="9.7" height="9.5"/>
		<rect x="290.3" y="142.9" class="st7" width="9.7" height="9.5"/>
		<rect x="290.3" y="133.4" class="st7" width="9.7" height="9.5"/>
		<rect x="290.3" y="123.8" class="st7" width="9.7" height="9.5"/>
		<rect x="290.3" y="114.3" class="st7" width="9.7" height="9.5"/>
		<rect x="290.3" y="104.8" class="st7" width="9.7" height="9.5"/>
		<rect x="290.3" y="95.3" class="st7" width="9.7" height="9.5"/>
		<rect x="290.3" y="85.7" class="st7" width="9.7" height="9.5"/>
		<rect x="290.3" y="76.2" class="st7" width="9.7" height="9.5"/>
		<rect x="290.3" y="66.7" class="st7" width="9.7" height="9.5"/>
		<rect x="290.3" y="57.2" class="st9" width="9.7" height="9.5"/>
		<rect x="290.3" y="47.6" class="st7" width="9.7" height="9.5"/>
		<rect x="290.3" y="38.1" width="9.7" height="9.5"/>
		<rect x="290.3" y="28.6" class="st3" width="9.7" height="9.5"/>
		<rect x="290.3" y="19.1" class="st3" width="9.7" height="9.5"/>
		<rect x="290.3" y="9.5" class="st1" width="9.7" height="9.5"/>
		<rect x="290.3" y="0" class="st1" width="9.7" height="9.5"/>
	</g>
</g>
<g>
	<rect x="145.2" y="190.5" class="st0" width="9.7" height="9.5"/>
	<rect x="145.2" y="180.9" class="st1" width="9.7" height="9.5"/>
	<rect x="145.2" y="171.4" class="st1" width="9.7" height="9.5"/>
	<rect x="145.2" y="161.9" class="st1" width="9.7" height="9.5"/>
	<rect x="145.2" y="152.4" class="st1" width="9.7" height="9.5"/>
	<rect x="145.2" y="142.9" class="st1" width="9.7" height="9.5"/>
	<rect x="145.2" y="133.3" class="st0" width="9.7" height="9.5"/>
	<rect x="145.2" y="123.8" class="st1" width="9.7" height="9.5"/>
	<rect x="145.2" y="114.3" class="st2" width="9.7" height="9.5"/>
	<rect x="145.2" y="104.8" class="st2" width="9.7" height="9.5"/>
	<rect x="145.2" y="95.2" class="st3" width="9.7" height="9.5"/>
	<rect x="145.2" y="85.7" class="st3" width="9.7" height="9.5"/>
	<rect x="145.2" y="76.2" class="st3" width="9.7" height="9.5"/>
	<rect x="145.2" y="66.7" class="st4" width="9.7" height="9.5"/>
	<rect x="145.2" y="57.1" class="st3" width="9.7" height="9.5"/>
	<rect x="145.2" y="47.6" class="st3" width="9.7" height="9.5"/>
	<rect x="145.2" y="38.1" class="st4" width="9.7" height="9.5"/>
	<rect x="145.2" y="28.6" class="st5" width="9.7" height="9.5"/>
	<rect x="145.2" y="19" class="st3" width="9.7" height="9.5"/>
	<rect x="145.2" y="9.5" class="st6" width="9.7" height="9.5"/>
	<rect x="145.2" y="0" class="st3" width="9.7" height="9.5"/>
</g>
</svg>
