<svg id="Layer_1" data-name="Layer 1" xmlns="http://www.w3.org/2000/svg" viewBox="0 0 300 200"><defs><style>.cls-1{fill:#ff9;}.cls-2{fill:#606;}.cls-3{fill:blue;}.cls-4{fill:#033;}.cls-5{fill:#366;}.cls-6{fill:#f30;}.cls-7{fill:red;}.cls-8{fill:#ffc;}.cls-9{fill:#999;}.cls-10{fill:#fff;}.cls-11{fill:#363;}.cls-12{fill:#ff6;}</style></defs><title>arcade</title><g id="_Group_" data-name="&lt;Group&gt;"><rect class="cls-1" x="290.32" y="190.48" width="9.68" height="9.52"/><rect class="cls-1" x="290.32" y="180.95" width="9.68" height="9.53"/><rect class="cls-1" x="290.32" y="171.43" width="9.68" height="9.52"/><rect class="cls-1" x="290.32" y="161.9" width="9.68" height="9.53"/><rect class="cls-1" x="290.32" y="152.38" width="9.68" height="9.52"/><rect class="cls-1" x="290.32" y="142.86" width="9.68" height="9.52"/><rect class="cls-1" x="290.32" y="133.33" width="9.68" height="9.53"/><rect class="cls-1" x="290.32" y="123.81" width="9.68" height="9.52"/><rect class="cls-1" x="290.32" y="114.29" width="9.68" height="9.52"/><rect class="cls-1" x="290.32" y="104.76" width="9.68" height="9.53"/><rect class="cls-1" x="290.32" y="95.24" width="9.68" height="9.52"/><rect class="cls-1" x="290.32" y="85.71" width="9.68" height="9.53"/><rect class="cls-1" x="290.32" y="76.19" width="9.68" height="9.52"/><rect class="cls-1" x="290.32" y="66.67" width="9.68" height="9.52"/><rect class="cls-1" x="290.32" y="57.14" width="9.68" height="9.53"/><rect class="cls-2" x="290.32" y="47.62" width="9.68" height="9.52"/><rect class="cls-2" x="290.32" y="38.1" width="9.68" height="9.52"/><rect x="290.32" y="28.57" width="9.68" height="9.53"/><rect class="cls-3" x="290.32" y="19.05" width="9.68" height="9.52"/><rect class="cls-3" x="290.32" y="9.52" width="9.68" height="9.53"/><rect class="cls-3" x="290.32" width="9.68" height="9.52"/><rect class="cls-1" x="280.65" y="190.48" width="9.67" height="9.52"/><rect class="cls-1" x="280.65" y="180.95" width="9.67" height="9.53"/><rect class="cls-4" x="280.65" y="171.43" width="9.67" height="9.52"/><rect class="cls-4" x="280.65" y="161.9" width="9.67" height="9.53"/><rect class="cls-1" x="280.65" y="152.38" width="9.67" height="9.52"/><rect class="cls-1" x="280.65" y="142.86" width="9.67" height="9.52"/><rect class="cls-1" x="280.65" y="133.33" width="9.67" height="9.53"/><rect class="cls-1" x="280.65" y="123.81" width="9.67" height="9.52"/><rect class="cls-1" x="280.65" y="114.29" width="9.67" height="9.52"/><rect class="cls-1" x="280.65" y="104.76" width="9.67" height="9.53"/><rect class="cls-4" x="280.65" y="95.24" width="9.67" height="9.52"/><rect class="cls-4" x="280.65" y="85.71" width="9.67" height="9.53"/><rect class="cls-4" x="280.65" y="76.19" width="9.67" height="9.52"/><rect class="cls-4" x="280.65" y="66.67" width="9.67" height="9.52"/><rect class="cls-4" x="280.65" y="57.14" width="9.67" height="9.53"/><rect class="cls-1" x="280.65" y="47.62" width="9.67" height="9.52"/><rect class="cls-1" x="280.65" y="38.1" width="9.67" height="9.52"/><rect x="280.65" y="28.57" width="9.67" height="9.53"/><rect class="cls-3" x="280.65" y="19.05" width="9.67" height="9.52"/><rect class="cls-5" x="280.65" y="9.52" width="9.67" height="9.53"/><rect class="cls-5" x="280.65" width="9.67" height="9.52"/><rect class="cls-1" x="270.97" y="190.48" width="9.68" height="9.52"/><rect class="cls-4" x="270.97" y="180.95" width="9.68" height="9.53"/><rect class="cls-1" x="270.97" y="171.43" width="9.68" height="9.52"/><rect class="cls-1" x="270.97" y="161.9" width="9.68" height="9.53"/><rect class="cls-4" x="270.97" y="152.38" width="9.68" height="9.52"/><rect class="cls-4" x="270.97" y="142.86" width="9.68" height="9.52"/><rect class="cls-2" x="270.97" y="133.33" width="9.68" height="9.53"/><rect class="cls-1" x="270.97" y="123.81" width="9.68" height="9.52"/><rect class="cls-2" x="270.97" y="114.29" width="9.68" height="9.52"/><rect class="cls-4" x="270.97" y="104.76" width="9.68" height="9.53"/><rect class="cls-1" x="270.97" y="95.24" width="9.68" height="9.52"/><rect class="cls-1" x="270.97" y="85.71" width="9.68" height="9.53"/><rect class="cls-1" x="270.97" y="76.19" width="9.68" height="9.52"/><rect class="cls-1" x="270.97" y="66.67" width="9.68" height="9.52"/><rect class="cls-1" x="270.97" y="57.14" width="9.68" height="9.53"/><rect class="cls-1" x="270.97" y="47.62" width="9.68" height="9.52"/><rect class="cls-1" x="270.97" y="38.1" width="9.68" height="9.52"/><rect x="270.97" y="28.57" width="9.68" height="9.53"/><rect class="cls-3" x="270.97" y="19.05" width="9.68" height="9.52"/><rect class="cls-5" x="270.97" y="9.52" width="9.68" height="9.53"/><rect class="cls-5" x="270.97" width="9.68" height="9.52"/><rect class="cls-1" x="261.29" y="190.48" width="9.68" height="9.52"/><rect class="cls-4" x="261.29" y="180.95" width="9.68" height="9.53"/><rect class="cls-1" x="261.29" y="171.43" width="9.68" height="9.52"/><rect class="cls-1" x="261.29" y="161.9" width="9.68" height="9.53"/><rect class="cls-1" x="261.29" y="152.38" width="9.68" height="9.52"/><rect class="cls-1" x="261.29" y="142.86" width="9.68" height="9.52"/><rect class="cls-1" x="261.29" y="133.33" width="9.68" height="9.53"/><rect class="cls-1" x="261.29" y="123.81" width="9.68" height="9.52"/><rect class="cls-1" x="261.29" y="114.29" width="9.68" height="9.52"/><rect class="cls-4" x="261.29" y="104.76" width="9.68" height="9.53"/><rect class="cls-1" x="261.29" y="95.24" width="9.68" height="9.52"/><rect class="cls-1" x="261.29" y="85.71" width="9.68" height="9.53"/><rect x="261.29" y="76.19" width="9.68" height="9.52"/><rect x="261.29" y="66.67" width="9.68" height="9.52"/><rect x="261.29" y="57.14" width="9.68" height="9.53"/><rect x="261.29" y="47.62" width="9.68" height="9.52"/><rect class="cls-1" x="261.29" y="38.1" width="9.68" height="9.52"/><rect x="261.29" y="28.57" width="9.68" height="9.53"/><rect class="cls-3" x="261.29" y="19.05" width="9.68" height="9.52"/><rect class="cls-5" x="261.29" y="9.52" width="9.68" height="9.53"/><rect class="cls-5" x="261.29" width="9.68" height="9.52"/><rect class="cls-1" x="251.61" y="190.48" width="9.68" height="9.52"/><rect class="cls-1" x="251.61" y="180.95" width="9.68" height="9.53"/><rect class="cls-1" x="251.61" y="171.43" width="9.68" height="9.52"/><rect x="251.61" y="161.9" width="9.68" height="9.53"/><rect x="251.61" y="152.38" width="9.68" height="9.52"/><rect x="251.61" y="142.86" width="9.68" height="9.52"/><rect x="251.61" y="133.33" width="9.68" height="9.53"/><rect class="cls-1" x="251.61" y="123.81" width="9.68" height="9.52"/><rect class="cls-4" x="251.61" y="114.29" width="9.68" height="9.52"/><rect class="cls-4" x="251.61" y="104.76" width="9.68" height="9.53"/><rect class="cls-1" x="251.61" y="95.24" width="9.68" height="9.52"/><rect class="cls-1" x="251.61" y="85.71" width="9.68" height="9.53"/><rect x="251.61" y="76.19" width="9.68" height="9.52"/><rect class="cls-6" x="251.61" y="66.67" width="9.68" height="9.52"/><rect class="cls-6" x="251.61" y="57.14" width="9.68" height="9.53"/><rect x="251.61" y="47.62" width="9.68" height="9.52"/><rect class="cls-1" x="251.61" y="38.1" width="9.68" height="9.52"/><rect x="251.61" y="28.57" width="9.68" height="9.53"/><rect class="cls-3" x="251.61" y="19.05" width="9.68" height="9.52"/><rect class="cls-3" x="251.61" y="9.52" width="9.68" height="9.53"/><rect class="cls-5" x="251.61" width="9.68" height="9.52"/><rect x="241.94" y="190.48" width="9.67" height="9.52"/><rect x="241.94" y="180.95" width="9.67" height="9.53"/><rect x="241.94" y="171.43" width="9.67" height="9.52"/><rect class="cls-7" x="241.94" y="161.9" width="9.67" height="9.53"/><rect class="cls-5" x="241.94" y="152.38" width="9.67" height="9.52"/><rect class="cls-5" x="241.94" y="142.86" width="9.67" height="9.52"/><rect x="241.94" y="133.33" width="9.67" height="9.53"/><rect x="241.94" y="123.81" width="9.67" height="9.52"/><rect class="cls-1" x="241.94" y="114.29" width="9.67" height="9.52"/><rect class="cls-1" x="241.94" y="104.76" width="9.67" height="9.53"/><rect class="cls-1" x="241.94" y="95.24" width="9.67" height="9.52"/><rect class="cls-1" x="241.94" y="85.71" width="9.67" height="9.53"/><rect x="241.94" y="76.19" width="9.67" height="9.52"/><rect class="cls-6" x="241.94" y="66.67" width="9.67" height="9.52"/><rect class="cls-6" x="241.94" y="57.14" width="9.67" height="9.53"/><rect x="241.94" y="47.62" width="9.67" height="9.52"/><rect class="cls-1" x="241.94" y="38.1" width="9.67" height="9.52"/><rect x="241.94" y="28.57" width="9.67" height="9.53"/><rect class="cls-3" x="241.94" y="19.05" width="9.67" height="9.52"/><rect class="cls-3" x="241.94" y="9.52" width="9.67" height="9.53"/><rect class="cls-5" x="241.94" width="9.67" height="9.52"/><rect x="232.26" y="190.48" width="9.68" height="9.52"/><rect class="cls-5" x="232.26" y="180.95" width="9.68" height="9.53"/><rect class="cls-5" x="232.26" y="171.43" width="9.68" height="9.52"/><rect class="cls-7" x="232.26" y="161.9" width="9.68" height="9.53"/><rect class="cls-7" x="232.26" y="152.38" width="9.68" height="9.52"/><rect class="cls-5" x="232.26" y="142.86" width="9.68" height="9.52"/><rect x="232.26" y="133.33" width="9.68" height="9.53"/><rect x="232.26" y="123.81" width="9.68" height="9.52"/><rect class="cls-1" x="232.26" y="114.29" width="9.68" height="9.52"/><rect class="cls-1" x="232.26" y="104.76" width="9.68" height="9.53"/><rect class="cls-2" x="232.26" y="95.24" width="9.68" height="9.52"/><rect class="cls-1" x="232.26" y="85.71" width="9.68" height="9.53"/><rect x="232.26" y="76.19" width="9.68" height="9.52"/><rect x="232.26" y="66.67" width="9.68" height="9.52"/><rect x="232.26" y="57.14" width="9.68" height="9.53"/><rect x="232.26" y="47.62" width="9.68" height="9.52"/><rect class="cls-1" x="232.26" y="38.1" width="9.68" height="9.52"/><rect x="232.26" y="28.57" width="9.68" height="9.53"/><rect class="cls-3" x="232.26" y="19.05" width="9.68" height="9.52"/><rect class="cls-3" x="232.26" y="9.52" width="9.68" height="9.53"/><rect class="cls-3" x="232.26" width="9.68" height="9.52"/><rect class="cls-5" x="222.58" y="190.48" width="9.68" height="9.52"/><rect class="cls-5" x="222.58" y="180.95" width="9.68" height="9.53"/><rect x="222.58" y="171.43" width="9.68" height="9.52"/><rect x="222.58" y="161.9" width="9.68" height="9.53"/><rect class="cls-7" x="222.58" y="152.38" width="9.68" height="9.52"/><rect class="cls-5" x="222.58" y="142.86" width="9.68" height="9.52"/><rect class="cls-5" x="222.58" y="133.33" width="9.68" height="9.53"/><rect x="222.58" y="123.81" width="9.68" height="9.52"/><rect class="cls-1" x="222.58" y="114.29" width="9.68" height="9.52"/><rect class="cls-1" x="222.58" y="104.76" width="9.68" height="9.53"/><rect class="cls-2" x="222.58" y="95.24" width="9.68" height="9.52"/><rect class="cls-2" x="222.58" y="85.71" width="9.68" height="9.53"/><rect class="cls-8" x="222.58" y="76.19" width="9.68" height="9.52"/><rect class="cls-1" x="222.58" y="66.67" width="9.68" height="9.52"/><rect class="cls-1" x="222.58" y="57.14" width="9.68" height="9.53"/><rect class="cls-1" x="222.58" y="47.62" width="9.68" height="9.52"/><rect x="222.58" y="38.1" width="9.68" height="9.52"/><rect x="222.58" y="28.57" width="9.68" height="9.53"/><rect class="cls-9" x="222.58" y="19.05" width="9.68" height="9.52"/><rect class="cls-3" x="222.58" y="9.52" width="9.68" height="9.53"/><rect class="cls-3" x="222.58" width="9.68" height="9.52"/><rect class="cls-5" x="212.9" y="190.48" width="9.68" height="9.52"/><rect x="212.9" y="180.95" width="9.68" height="9.53"/><rect class="cls-10" x="212.9" y="171.43" width="9.68" height="9.52"/><rect class="cls-10" x="212.9" y="161.9" width="9.68" height="9.53"/><rect x="212.9" y="152.38" width="9.68" height="9.52"/><rect x="212.9" y="142.86" width="9.68" height="9.52"/><rect x="212.9" y="133.33" width="9.68" height="9.53"/><rect x="212.9" y="123.81" width="9.68" height="9.52"/><rect class="cls-1" x="212.9" y="114.29" width="9.68" height="9.52"/><rect class="cls-1" x="212.9" y="104.76" width="9.68" height="9.53"/><rect class="cls-1" x="212.9" y="95.24" width="9.68" height="9.52"/><rect class="cls-2" x="212.9" y="85.71" width="9.68" height="9.53"/><rect class="cls-1" x="212.9" y="76.19" width="9.68" height="9.52"/><rect class="cls-1" x="212.9" y="66.67" width="9.68" height="9.52"/><rect class="cls-1" x="212.9" y="57.14" width="9.68" height="9.53"/><rect class="cls-1" x="212.9" y="47.62" width="9.68" height="9.52"/><rect x="212.9" y="38.1" width="9.68" height="9.52"/><rect class="cls-3" x="212.9" y="28.57" width="9.68" height="9.53"/><rect class="cls-9" x="212.9" y="19.05" width="9.68" height="9.52"/><rect class="cls-9" x="212.9" y="9.52" width="9.68" height="9.53"/><rect class="cls-3" x="212.9" width="9.68" height="9.52"/><rect class="cls-5" x="203.23" y="190.48" width="9.67" height="9.52"/><rect x="203.23" y="180.95" width="9.67" height="9.53"/><rect class="cls-10" x="203.23" y="171.43" width="9.67" height="9.52"/><rect class="cls-10" x="203.23" y="161.9" width="9.67" height="9.53"/><rect class="cls-10" x="203.23" y="152.38" width="9.67" height="9.52"/><rect class="cls-10" x="203.23" y="142.86" width="9.67" height="9.52"/><rect x="203.23" y="133.33" width="9.67" height="9.53"/><rect x="203.23" y="123.81" width="9.67" height="9.52"/><rect x="203.23" y="114.29" width="9.67" height="9.52"/><rect x="203.23" y="104.76" width="9.67" height="9.53"/><rect class="cls-1" x="203.23" y="95.24" width="9.67" height="9.52"/><rect class="cls-1" x="203.23" y="85.71" width="9.67" height="9.53"/><rect class="cls-1" x="203.23" y="76.19" width="9.67" height="9.52"/><rect class="cls-1" x="203.23" y="66.67" width="9.67" height="9.52"/><rect class="cls-1" x="203.23" y="57.14" width="9.67" height="9.53"/><rect x="203.23" y="47.62" width="9.67" height="9.52"/><rect class="cls-9" x="203.23" y="38.1" width="9.67" height="9.52"/><rect class="cls-9" x="203.23" y="28.57" width="9.67" height="9.53"/><rect class="cls-9" x="203.23" y="19.05" width="9.67" height="9.52"/><rect class="cls-9" x="203.23" y="9.52" width="9.67" height="9.53"/><rect class="cls-3" x="203.23" width="9.67" height="9.52"/><rect class="cls-5" x="193.55" y="190.48" width="9.68" height="9.52"/><rect x="193.55" y="180.95" width="9.68" height="9.53"/><rect x="193.55" y="171.43" width="9.68" height="9.52"/><rect class="cls-10" x="193.55" y="161.9" width="9.68" height="9.53"/><rect class="cls-10" x="193.55" y="152.38" width="9.68" height="9.52"/><rect class="cls-10" x="193.55" y="142.86" width="9.68" height="9.52"/><rect class="cls-10" x="193.55" y="133.33" width="9.68" height="9.53"/><rect class="cls-10" x="193.55" y="123.81" width="9.68" height="9.52"/><rect x="193.55" y="114.29" width="9.68" height="9.52"/><rect x="193.55" y="104.76" width="9.68" height="9.53"/><rect class="cls-1" x="193.55" y="95.24" width="9.68" height="9.52"/><rect class="cls-1" x="193.55" y="85.71" width="9.68" height="9.53"/><rect class="cls-1" x="193.55" y="76.19" width="9.68" height="9.52"/><rect class="cls-1" x="193.55" y="66.67" width="9.68" height="9.52"/><rect x="193.55" y="57.14" width="9.68" height="9.53"/><rect x="193.55" y="47.62" width="9.68" height="9.52"/><rect class="cls-11" x="193.55" y="38.1" width="9.68" height="9.52"/><rect class="cls-3" x="193.55" y="28.57" width="9.68" height="9.53"/><rect class="cls-3" x="193.55" y="19.05" width="9.68" height="9.52"/><rect class="cls-9" x="193.55" y="9.52" width="9.68" height="9.53"/><rect class="cls-3" x="193.55" width="9.68" height="9.52"/><rect class="cls-5" x="183.87" y="190.48" width="9.68" height="9.52"/><rect class="cls-2" x="183.87" y="180.95" width="9.68" height="9.53"/><rect x="183.87" y="171.43" width="9.68" height="9.52"/><rect x="183.87" y="161.9" width="9.68" height="9.53"/><rect x="183.87" y="152.38" width="9.68" height="9.52"/><rect x="183.87" y="142.86" width="9.68" height="9.52"/><rect x="183.87" y="133.33" width="9.68" height="9.53"/><rect x="183.87" y="123.81" width="9.68" height="9.52"/><rect x="183.87" y="114.29" width="9.68" height="9.52"/><rect x="183.87" y="104.76" width="9.68" height="9.53"/><rect x="183.87" y="95.24" width="9.68" height="9.52"/><rect x="183.87" y="85.71" width="9.68" height="9.53"/><rect x="183.87" y="76.19" width="9.68" height="9.52"/><rect x="183.87" y="66.67" width="9.68" height="9.52"/><rect x="183.87" y="57.14" width="9.68" height="9.53"/><rect class="cls-8" x="183.87" y="47.62" width="9.68" height="9.52"/><rect class="cls-11" x="183.87" y="38.1" width="9.68" height="9.52"/><rect class="cls-3" x="183.87" y="28.57" width="9.68" height="9.53"/><rect class="cls-3" x="183.87" y="19.05" width="9.68" height="9.52"/><rect class="cls-9" x="183.87" y="9.52" width="9.68" height="9.53"/><rect class="cls-3" x="183.87" width="9.68" height="9.52"/><rect class="cls-5" x="174.19" y="190.48" width="9.68" height="9.52"/><rect class="cls-2" x="174.19" y="180.95" width="9.68" height="9.53"/><rect class="cls-2" x="174.19" y="171.43" width="9.68" height="9.52"/><rect class="cls-5" x="174.19" y="161.9" width="9.68" height="9.53"/><rect class="cls-5" x="174.19" y="152.38" width="9.68" height="9.52"/><rect class="cls-5" x="174.19" y="142.86" width="9.68" height="9.52"/><rect class="cls-7" x="174.19" y="133.33" width="9.68" height="9.53"/><rect class="cls-5" x="174.19" y="123.81" width="9.68" height="9.52"/><rect class="cls-10" x="174.19" y="114.29" width="9.68" height="9.52"/><rect class="cls-10" x="174.19" y="104.76" width="9.68" height="9.53"/><rect class="cls-3" x="174.19" y="95.24" width="9.68" height="9.52"/><rect class="cls-3" x="174.19" y="85.71" width="9.68" height="9.53"/><rect class="cls-8" x="174.19" y="76.19" width="9.68" height="9.52"/><rect class="cls-11" x="174.19" y="66.67" width="9.68" height="9.52"/><rect class="cls-8" x="174.19" y="57.14" width="9.68" height="9.53"/><rect class="cls-3" x="174.19" y="47.62" width="9.68" height="9.52"/><rect class="cls-11" x="174.19" y="38.1" width="9.68" height="9.52"/><rect class="cls-8" x="174.19" y="28.57" width="9.68" height="9.53"/><rect class="cls-3" x="174.19" y="19.05" width="9.68" height="9.52"/><rect class="cls-9" x="174.19" y="9.52" width="9.68" height="9.53"/><rect class="cls-3" x="174.19" width="9.68" height="9.52"/><rect class="cls-7" x="164.52" y="190.48" width="9.67" height="9.52"/><rect class="cls-2" x="164.52" y="180.95" width="9.67" height="9.53"/><rect class="cls-5" x="164.52" y="171.43" width="9.67" height="9.52"/><rect class="cls-2" x="164.52" y="161.9" width="9.67" height="9.53"/><rect class="cls-5" x="164.52" y="152.38" width="9.67" height="9.52"/><rect class="cls-5" x="164.52" y="142.86" width="9.67" height="9.52"/><rect class="cls-7" x="164.52" y="133.33" width="9.67" height="9.53"/><rect class="cls-5" x="164.52" y="123.81" width="9.67" height="9.52"/><rect x="164.52" y="114.29" width="9.67" height="9.52"/><rect x="164.52" y="104.76" width="9.67" height="9.53"/><rect class="cls-3" x="164.52" y="95.24" width="9.67" height="9.52"/><rect class="cls-3" x="164.52" y="85.71" width="9.67" height="9.53"/><rect class="cls-11" x="164.52" y="76.19" width="9.67" height="9.52"/><rect class="cls-11" x="164.52" y="66.67" width="9.67" height="9.52"/><rect class="cls-11" x="164.52" y="57.14" width="9.67" height="9.53"/><rect class="cls-8" x="164.52" y="47.62" width="9.67" height="9.52"/><rect class="cls-11" x="164.52" y="38.1" width="9.67" height="9.52"/><rect class="cls-11" x="164.52" y="28.57" width="9.67" height="9.53"/><rect class="cls-3" x="164.52" y="19.05" width="9.67" height="9.52"/><rect class="cls-9" x="164.52" y="9.52" width="9.67" height="9.53"/><rect class="cls-3" x="164.52" width="9.67" height="9.52"/><rect class="cls-7" x="154.84" y="190.48" width="9.68" height="9.52"/><rect class="cls-5" x="154.84" y="180.95" width="9.68" height="9.53"/><rect class="cls-5" x="154.84" y="171.43" width="9.68" height="9.52"/><rect class="cls-2" x="154.84" y="161.9" width="9.68" height="9.53"/><rect class="cls-5" x="154.84" y="152.38" width="9.68" height="9.52"/><rect class="cls-5" x="154.84" y="142.86" width="9.68" height="9.52"/><rect class="cls-7" x="154.84" y="133.33" width="9.68" height="9.53"/><rect class="cls-5" x="154.84" y="123.81" width="9.68" height="9.52"/><rect x="154.84" y="114.29" width="9.68" height="9.52"/><rect x="154.84" y="104.76" width="9.68" height="9.53"/><rect class="cls-3" x="154.84" y="95.24" width="9.68" height="9.52"/><rect class="cls-8" x="154.84" y="85.71" width="9.68" height="9.53"/><rect class="cls-8" x="154.84" y="76.19" width="9.68" height="9.52"/><rect class="cls-8" x="154.84" y="66.67" width="9.68" height="9.52"/><rect class="cls-11" x="154.84" y="57.14" width="9.68" height="9.53"/><rect class="cls-11" x="154.84" y="47.62" width="9.68" height="9.52"/><rect class="cls-11" x="154.84" y="38.1" width="9.68" height="9.52"/><rect class="cls-8" x="154.84" y="28.57" width="9.68" height="9.53"/><rect class="cls-11" x="154.84" y="19.05" width="9.68" height="9.52"/><rect class="cls-9" x="154.84" y="9.52" width="9.68" height="9.53"/><rect class="cls-3" x="154.84" width="9.68" height="9.52"/><rect class="cls-7" x="145.16" y="190.48" width="9.68" height="9.52"/><rect class="cls-5" x="145.16" y="180.95" width="9.68" height="9.53"/><rect class="cls-5" x="145.16" y="171.43" width="9.68" height="9.52"/><rect class="cls-5" x="145.16" y="161.9" width="9.68" height="9.53"/><rect class="cls-5" x="145.16" y="152.38" width="9.68" height="9.52"/><rect class="cls-5" x="145.16" y="142.86" width="9.68" height="9.52"/><rect class="cls-7" x="145.16" y="133.33" width="9.68" height="9.53"/><rect class="cls-5" x="145.16" y="123.81" width="9.68" height="9.52"/><rect class="cls-10" x="145.16" y="114.29" width="9.68" height="9.52"/><rect class="cls-10" x="145.16" y="104.76" width="9.68" height="9.53"/><rect class="cls-3" x="145.16" y="95.24" width="9.68" height="9.52"/><rect class="cls-8" x="145.16" y="85.71" width="9.68" height="9.53"/><rect class="cls-3" x="145.16" y="76.19" width="9.68" height="9.52"/><rect class="cls-11" x="145.16" y="66.67" width="9.68" height="9.52"/><rect class="cls-11" x="145.16" y="57.14" width="9.68" height="9.53"/><rect class="cls-8" x="145.16" y="47.62" width="9.68" height="9.52"/><rect class="cls-3" x="145.16" y="38.1" width="9.68" height="9.52"/><rect class="cls-3" x="145.16" y="28.57" width="9.68" height="9.53"/><rect class="cls-3" x="145.16" y="19.05" width="9.68" height="9.52"/><rect class="cls-9" x="145.16" y="9.52" width="9.68" height="9.53"/><rect class="cls-3" x="145.16" width="9.68" height="9.52"/><rect class="cls-7" x="135.48" y="190.48" width="9.68" height="9.52"/><rect class="cls-5" x="135.48" y="180.95" width="9.68" height="9.53"/><rect class="cls-5" x="135.48" y="171.43" width="9.68" height="9.52"/><rect class="cls-5" x="135.48" y="161.9" width="9.68" height="9.53"/><rect class="cls-5" x="135.48" y="152.38" width="9.68" height="9.52"/><rect class="cls-5" x="135.48" y="142.86" width="9.68" height="9.52"/><rect class="cls-7" x="135.48" y="133.33" width="9.68" height="9.53"/><rect class="cls-5" x="135.48" y="123.81" width="9.68" height="9.52"/><rect class="cls-10" x="135.48" y="114.29" width="9.68" height="9.52"/><rect class="cls-10" x="135.48" y="104.76" width="9.68" height="9.53"/><rect class="cls-3" x="135.48" y="95.24" width="9.68" height="9.52"/><rect class="cls-3" x="135.48" y="85.71" width="9.68" height="9.53"/><rect class="cls-3" x="135.48" y="76.19" width="9.68" height="9.52"/><rect class="cls-11" x="135.48" y="66.67" width="9.68" height="9.52"/><rect class="cls-3" x="135.48" y="57.14" width="9.68" height="9.53"/><rect class="cls-3" x="135.48" y="47.62" width="9.68" height="9.52"/><rect class="cls-11" x="135.48" y="38.1" width="9.68" height="9.52"/><rect class="cls-8" x="135.48" y="28.57" width="9.68" height="9.53"/><rect class="cls-3" x="135.48" y="19.05" width="9.68" height="9.52"/><rect class="cls-9" x="135.48" y="9.52" width="9.68" height="9.53"/><rect class="cls-3" x="135.48" width="9.68" height="9.52"/><rect class="cls-7" x="125.81" y="190.48" width="9.67" height="9.52"/><rect class="cls-5" x="125.81" y="180.95" width="9.67" height="9.53"/><rect class="cls-5" x="125.81" y="171.43" width="9.67" height="9.52"/><rect class="cls-5" x="125.81" y="161.9" width="9.67" height="9.53"/><rect class="cls-5" x="125.81" y="152.38" width="9.67" height="9.52"/><rect class="cls-5" x="125.81" y="142.86" width="9.67" height="9.52"/><rect class="cls-7" x="125.81" y="133.33" width="9.67" height="9.53"/><rect class="cls-5" x="125.81" y="123.81" width="9.67" height="9.52"/><rect x="125.81" y="114.29" width="9.67" height="9.52"/><rect x="125.81" y="104.76" width="9.67" height="9.53"/><rect class="cls-9" x="125.81" y="95.24" width="9.67" height="9.52"/><rect class="cls-9" x="125.81" y="85.71" width="9.67" height="9.53"/><rect x="125.81" y="76.19" width="9.67" height="9.52"/><rect x="125.81" y="66.67" width="9.67" height="9.52"/><rect x="125.81" y="57.14" width="9.67" height="9.53"/><rect x="125.81" y="47.62" width="9.67" height="9.52"/><rect x="125.81" y="38.1" width="9.67" height="9.52"/><rect class="cls-9" x="125.81" y="28.57" width="9.67" height="9.53"/><rect class="cls-9" x="125.81" y="19.05" width="9.67" height="9.52"/><rect class="cls-9" x="125.81" y="9.52" width="9.67" height="9.53"/><rect class="cls-3" x="125.81" width="9.67" height="9.52"/><rect class="cls-7" x="116.13" y="190.48" width="9.68" height="9.52"/><rect class="cls-5" x="116.13" y="180.95" width="9.68" height="9.53"/><rect class="cls-5" x="116.13" y="171.43" width="9.68" height="9.52"/><rect class="cls-5" x="116.13" y="161.9" width="9.68" height="9.53"/><rect x="116.13" y="152.38" width="9.68" height="9.52"/><rect x="116.13" y="142.86" width="9.68" height="9.52"/><rect x="116.13" y="133.33" width="9.68" height="9.53"/><rect x="116.13" y="123.81" width="9.68" height="9.52"/><rect x="116.13" y="114.29" width="9.68" height="9.52"/><rect x="116.13" y="104.76" width="9.68" height="9.53"/><rect x="116.13" y="95.24" width="9.68" height="9.52"/><rect x="116.13" y="85.71" width="9.68" height="9.53"/><rect x="116.13" y="76.19" width="9.68" height="9.52"/><rect class="cls-1" x="116.13" y="66.67" width="9.68" height="9.52"/><rect class="cls-1" x="116.13" y="57.14" width="9.68" height="9.53"/><rect class="cls-1" x="116.13" y="47.62" width="9.68" height="9.52"/><rect x="116.13" y="38.1" width="9.68" height="9.52"/><rect x="116.13" y="28.57" width="9.68" height="9.53"/><rect class="cls-3" x="116.13" y="19.05" width="9.68" height="9.52"/><rect class="cls-9" x="116.13" y="9.52" width="9.68" height="9.53"/><rect class="cls-3" x="116.13" width="9.68" height="9.52"/><rect class="cls-5" x="106.45" y="190.48" width="9.68" height="9.52"/><rect class="cls-5" x="106.45" y="180.95" width="9.68" height="9.53"/><rect class="cls-5" x="106.45" y="171.43" width="9.68" height="9.52"/><rect x="106.45" y="161.9" width="9.68" height="9.53"/><rect x="106.45" y="152.38" width="9.68" height="9.52"/><rect class="cls-10" x="106.45" y="142.86" width="9.68" height="9.52"/><rect class="cls-10" x="106.45" y="133.33" width="9.68" height="9.53"/><rect x="106.45" y="123.81" width="9.68" height="9.52"/><rect x="106.45" y="114.29" width="9.68" height="9.52"/><rect x="106.45" y="104.76" width="9.68" height="9.53"/><rect class="cls-1" x="106.45" y="95.24" width="9.68" height="9.52"/><rect class="cls-4" x="106.45" y="85.71" width="9.68" height="9.53"/><rect class="cls-4" x="106.45" y="76.19" width="9.68" height="9.52"/><rect class="cls-4" x="106.45" y="66.67" width="9.68" height="9.52"/><rect class="cls-8" x="106.45" y="57.14" width="9.68" height="9.53"/><rect class="cls-1" x="106.45" y="47.62" width="9.68" height="9.52"/><rect class="cls-1" x="106.45" y="38.1" width="9.68" height="9.52"/><rect x="106.45" y="28.57" width="9.68" height="9.53"/><rect class="cls-3" x="106.45" y="19.05" width="9.68" height="9.52"/><rect class="cls-9" x="106.45" y="9.52" width="9.68" height="9.53"/><rect class="cls-3" x="106.45" width="9.68" height="9.52"/><rect class="cls-5" x="96.77" y="190.48" width="9.68" height="9.52"/><rect class="cls-5" x="96.77" y="180.95" width="9.68" height="9.53"/><rect x="96.77" y="171.43" width="9.68" height="9.52"/><rect x="96.77" y="161.9" width="9.68" height="9.53"/><rect class="cls-10" x="96.77" y="152.38" width="9.68" height="9.52"/><rect class="cls-10" x="96.77" y="142.86" width="9.68" height="9.52"/><rect class="cls-10" x="96.77" y="133.33" width="9.68" height="9.53"/><rect x="96.77" y="123.81" width="9.68" height="9.52"/><rect class="cls-1" x="96.77" y="114.29" width="9.68" height="9.52"/><rect class="cls-1" x="96.77" y="104.76" width="9.68" height="9.53"/><rect class="cls-4" x="96.77" y="95.24" width="9.68" height="9.52"/><rect class="cls-1" x="96.77" y="85.71" width="9.68" height="9.53"/><rect class="cls-1" x="96.77" y="76.19" width="9.68" height="9.52"/><rect class="cls-1" x="96.77" y="66.67" width="9.68" height="9.52"/><rect class="cls-1" x="96.77" y="57.14" width="9.68" height="9.53"/><rect class="cls-1" x="96.77" y="47.62" width="9.68" height="9.52"/><rect class="cls-1" x="96.77" y="38.1" width="9.68" height="9.52"/><rect x="96.77" y="28.57" width="9.68" height="9.53"/><rect class="cls-9" x="96.77" y="19.05" width="9.68" height="9.52"/><rect class="cls-9" x="96.77" y="9.52" width="9.68" height="9.53"/><rect class="cls-3" x="96.77" width="9.68" height="9.52"/><rect class="cls-5" x="87.1" y="190.48" width="9.67" height="9.52"/><rect x="87.1" y="180.95" width="9.67" height="9.53"/><rect x="87.1" y="171.43" width="9.67" height="9.52"/><rect class="cls-10" x="87.1" y="161.9" width="9.67" height="9.53"/><rect class="cls-10" x="87.1" y="152.38" width="9.67" height="9.52"/><rect class="cls-10" x="87.1" y="142.86" width="9.67" height="9.52"/><rect class="cls-10" x="87.1" y="133.33" width="9.67" height="9.53"/><rect x="87.1" y="123.81" width="9.67" height="9.52"/><rect class="cls-4" x="87.1" y="114.29" width="9.67" height="9.52"/><rect class="cls-4" x="87.1" y="104.76" width="9.67" height="9.53"/><rect class="cls-4" x="87.1" y="95.24" width="9.67" height="9.52"/><rect class="cls-1" x="87.1" y="85.71" width="9.67" height="9.53"/><rect class="cls-2" x="87.1" y="76.19" width="9.67" height="9.52"/><rect class="cls-2" x="87.1" y="66.67" width="9.67" height="9.52"/><rect class="cls-2" x="87.1" y="57.14" width="9.67" height="9.53"/><rect class="cls-1" x="87.1" y="47.62" width="9.67" height="9.52"/><rect class="cls-1" x="87.1" y="38.1" width="9.67" height="9.52"/><rect x="87.1" y="28.57" width="9.67" height="9.53"/><rect class="cls-9" x="87.1" y="19.05" width="9.67" height="9.52"/><rect class="cls-3" x="87.1" y="9.52" width="9.67" height="9.53"/><rect class="cls-3" x="87.1" width="9.67" height="9.52"/><rect class="cls-5" x="77.42" y="190.48" width="9.68" height="9.52"/><rect x="77.42" y="180.95" width="9.68" height="9.53"/><rect class="cls-10" x="77.42" y="171.43" width="9.68" height="9.52"/><rect class="cls-10" x="77.42" y="161.9" width="9.68" height="9.53"/><rect class="cls-10" x="77.42" y="152.38" width="9.68" height="9.52"/><rect class="cls-10" x="77.42" y="142.86" width="9.68" height="9.52"/><rect class="cls-10" x="77.42" y="133.33" width="9.68" height="9.53"/><rect x="77.42" y="123.81" width="9.68" height="9.52"/><rect class="cls-1" x="77.42" y="114.29" width="9.68" height="9.52"/><rect class="cls-1" x="77.42" y="104.76" width="9.68" height="9.53"/><rect class="cls-4" x="77.42" y="95.24" width="9.68" height="9.52"/><rect class="cls-1" x="77.42" y="85.71" width="9.68" height="9.53"/><rect class="cls-1" x="77.42" y="76.19" width="9.68" height="9.52"/><rect class="cls-1" x="77.42" y="66.67" width="9.68" height="9.52"/><rect class="cls-1" x="77.42" y="57.14" width="9.68" height="9.53"/><rect class="cls-1" x="77.42" y="47.62" width="9.68" height="9.52"/><rect class="cls-1" x="77.42" y="38.1" width="9.68" height="9.52"/><rect x="77.42" y="28.57" width="9.68" height="9.53"/><rect class="cls-9" x="77.42" y="19.05" width="9.68" height="9.52"/><rect class="cls-3" x="77.42" y="9.52" width="9.68" height="9.53"/><rect class="cls-3" x="77.42" width="9.68" height="9.52"/><rect x="67.74" y="190.48" width="9.68" height="9.52"/><rect x="67.74" y="180.95" width="9.68" height="9.53"/><rect class="cls-10" x="67.74" y="171.43" width="9.68" height="9.52"/><rect class="cls-10" x="67.74" y="161.9" width="9.68" height="9.53"/><rect class="cls-10" x="67.74" y="152.38" width="9.68" height="9.52"/><rect x="67.74" y="142.86" width="9.68" height="9.52"/><rect x="67.74" y="133.33" width="9.68" height="9.53"/><rect x="67.74" y="123.81" width="9.68" height="9.52"/><rect class="cls-1" x="67.74" y="114.29" width="9.68" height="9.52"/><rect class="cls-1" x="67.74" y="104.76" width="9.68" height="9.53"/><rect class="cls-4" x="67.74" y="95.24" width="9.68" height="9.52"/><rect class="cls-1" x="67.74" y="85.71" width="9.68" height="9.53"/><rect class="cls-1" x="67.74" y="76.19" width="9.68" height="9.52"/><rect class="cls-1" x="67.74" y="66.67" width="9.68" height="9.52"/><rect class="cls-1" x="67.74" y="57.14" width="9.68" height="9.53"/><rect class="cls-1" x="67.74" y="47.62" width="9.68" height="9.52"/><rect class="cls-1" x="67.74" y="38.1" width="9.68" height="9.52"/><rect x="67.74" y="28.57" width="9.68" height="9.53"/><rect class="cls-9" x="67.74" y="19.05" width="9.68" height="9.52"/><rect class="cls-3" x="67.74" y="9.52" width="9.68" height="9.53"/><rect class="cls-3" x="67.74" width="9.68" height="9.52"/><rect x="58.06" y="190.48" width="9.68" height="9.52"/><rect x="58.06" y="180.95" width="9.68" height="9.53"/><rect x="58.06" y="171.43" width="9.68" height="9.52"/><rect x="58.06" y="161.9" width="9.68" height="9.53"/><rect x="58.06" y="152.38" width="9.68" height="9.52"/><rect x="58.06" y="142.86" width="9.68" height="9.52"/><rect class="cls-5" x="58.06" y="133.33" width="9.68" height="9.53"/><rect x="58.06" y="123.81" width="9.68" height="9.52"/><rect class="cls-1" x="58.06" y="114.29" width="9.68" height="9.52"/><rect class="cls-1" x="58.06" y="104.76" width="9.68" height="9.53"/><rect class="cls-2" x="58.06" y="95.24" width="9.68" height="9.52"/><rect class="cls-4" x="58.06" y="85.71" width="9.68" height="9.53"/><rect x="58.06" y="76.19" width="9.68" height="9.52"/><rect x="58.06" y="66.67" width="9.68" height="9.52"/><rect x="58.06" y="57.14" width="9.68" height="9.53"/><rect x="58.06" y="47.62" width="9.68" height="9.52"/><rect class="cls-1" x="58.06" y="38.1" width="9.68" height="9.52"/><rect x="58.06" y="28.57" width="9.68" height="9.53"/><rect class="cls-9" x="58.06" y="19.05" width="9.68" height="9.52"/><rect class="cls-3" x="58.06" y="9.52" width="9.68" height="9.53"/><rect class="cls-3" x="58.06" width="9.68" height="9.52"/><rect class="cls-1" x="48.39" y="190.48" width="9.67" height="9.52"/><rect x="48.39" y="180.95" width="9.67" height="9.53"/><rect class="cls-5" x="48.39" y="171.43" width="9.67" height="9.52"/><rect class="cls-7" x="48.39" y="161.9" width="9.67" height="9.53"/><rect class="cls-7" x="48.39" y="152.38" width="9.67" height="9.52"/><rect class="cls-5" x="48.39" y="142.86" width="9.67" height="9.52"/><rect x="48.39" y="133.33" width="9.67" height="9.53"/><rect x="48.39" y="123.81" width="9.67" height="9.52"/><rect class="cls-1" x="48.39" y="114.29" width="9.67" height="9.52"/><rect class="cls-1" x="48.39" y="104.76" width="9.67" height="9.53"/><rect class="cls-1" x="48.39" y="95.24" width="9.67" height="9.52"/><rect class="cls-4" x="48.39" y="85.71" width="9.67" height="9.53"/><rect x="48.39" y="76.19" width="9.67" height="9.52"/><rect class="cls-6" x="48.39" y="66.67" width="9.67" height="9.52"/><rect class="cls-6" x="48.39" y="57.14" width="9.67" height="9.53"/><rect x="48.39" y="47.62" width="9.67" height="9.52"/><rect class="cls-1" x="48.39" y="38.1" width="9.67" height="9.52"/><rect x="48.39" y="28.57" width="9.67" height="9.53"/><rect class="cls-9" x="48.39" y="19.05" width="9.67" height="9.52"/><rect class="cls-3" x="48.39" y="9.52" width="9.67" height="9.53"/><rect class="cls-3" x="48.39" width="9.67" height="9.52"/><rect class="cls-1" x="38.71" y="190.48" width="9.68" height="9.52"/><rect class="cls-1" x="38.71" y="180.95" width="9.68" height="9.53"/><rect class="cls-5" x="38.71" y="171.43" width="9.68" height="9.52"/><rect class="cls-7" x="38.71" y="161.9" width="9.68" height="9.53"/><rect class="cls-5" x="38.71" y="152.38" width="9.68" height="9.52"/><rect class="cls-5" x="38.71" y="142.86" width="9.68" height="9.52"/><rect x="38.71" y="133.33" width="9.68" height="9.53"/><rect x="38.71" y="123.81" width="9.68" height="9.52"/><rect class="cls-1" x="38.71" y="114.29" width="9.68" height="9.52"/><rect class="cls-2" x="38.71" y="104.76" width="9.68" height="9.53"/><rect class="cls-1" x="38.71" y="95.24" width="9.68" height="9.52"/><rect class="cls-4" x="38.71" y="85.71" width="9.68" height="9.53"/><rect x="38.71" y="76.19" width="9.68" height="9.52"/><rect class="cls-6" x="38.71" y="66.67" width="9.68" height="9.52"/><rect class="cls-6" x="38.71" y="57.14" width="9.68" height="9.53"/><rect x="38.71" y="47.62" width="9.68" height="9.52"/><rect class="cls-1" x="38.71" y="38.1" width="9.68" height="9.52"/><rect x="38.71" y="28.57" width="9.68" height="9.53"/><rect class="cls-3" x="38.71" y="19.05" width="9.68" height="9.52"/><rect class="cls-3" x="38.71" y="9.52" width="9.68" height="9.53"/><rect class="cls-3" x="38.71" width="9.68" height="9.52"/><rect class="cls-1" x="29.03" y="190.48" width="9.68" height="9.52"/><rect class="cls-1" x="29.03" y="180.95" width="9.68" height="9.53"/><rect class="cls-7" x="29.03" y="171.43" width="9.68" height="9.52"/><rect x="29.03" y="161.9" width="9.68" height="9.53"/><rect x="29.03" y="152.38" width="9.68" height="9.52"/><rect x="29.03" y="142.86" width="9.68" height="9.52"/><rect class="cls-10" x="29.03" y="133.33" width="9.68" height="9.53"/><rect class="cls-1" x="29.03" y="123.81" width="9.68" height="9.52"/><rect class="cls-1" x="29.03" y="114.29" width="9.68" height="9.52"/><rect class="cls-1" x="29.03" y="104.76" width="9.68" height="9.53"/><rect class="cls-4" x="29.03" y="95.24" width="9.68" height="9.52"/><rect class="cls-4" x="29.03" y="85.71" width="9.68" height="9.53"/><rect x="29.03" y="76.19" width="9.68" height="9.52"/><rect x="29.03" y="66.67" width="9.68" height="9.52"/><rect x="29.03" y="57.14" width="9.68" height="9.53"/><rect x="29.03" y="47.62" width="9.68" height="9.52"/><rect class="cls-1" x="29.03" y="38.1" width="9.68" height="9.52"/><rect x="29.03" y="28.57" width="9.68" height="9.53"/><rect class="cls-3" x="29.03" y="19.05" width="9.68" height="9.52"/><rect class="cls-3" x="29.03" y="9.52" width="9.68" height="9.53"/><rect class="cls-12" x="29.03" width="9.68" height="9.52"/><rect class="cls-4" x="19.35" y="190.48" width="9.68" height="9.52"/><rect class="cls-4" x="19.35" y="180.95" width="9.68" height="9.53"/><rect x="19.35" y="171.43" width="9.68" height="9.52"/><rect x="19.35" y="161.9" width="9.68" height="9.53"/><rect class="cls-1" x="19.35" y="152.38" width="9.68" height="9.52"/><rect class="cls-1" x="19.35" y="142.86" width="9.68" height="9.52"/><rect class="cls-1" x="19.35" y="133.33" width="9.68" height="9.53"/><rect class="cls-2" x="19.35" y="123.81" width="9.68" height="9.52"/><rect class="cls-8" x="19.35" y="114.29" width="9.68" height="9.52"/><rect class="cls-1" x="19.35" y="104.76" width="9.68" height="9.53"/><rect class="cls-4" x="19.35" y="95.24" width="9.68" height="9.52"/><rect class="cls-1" x="19.35" y="85.71" width="9.68" height="9.53"/><rect class="cls-1" x="19.35" y="76.19" width="9.68" height="9.52"/><rect class="cls-1" x="19.35" y="66.67" width="9.68" height="9.52"/><rect class="cls-1" x="19.35" y="57.14" width="9.68" height="9.53"/><rect class="cls-1" x="19.35" y="47.62" width="9.68" height="9.52"/><rect class="cls-1" x="19.35" y="38.1" width="9.68" height="9.52"/><rect x="19.35" y="28.57" width="9.68" height="9.53"/><rect class="cls-3" x="19.35" y="19.05" width="9.68" height="9.52"/><rect class="cls-3" x="19.35" y="9.52" width="9.68" height="9.53"/><rect class="cls-5" x="19.35" width="9.68" height="9.52"/><rect class="cls-1" x="9.68" y="190.48" width="9.67" height="9.52"/><rect class="cls-4" x="9.68" y="180.95" width="9.67" height="9.53"/><rect class="cls-4" x="9.68" y="171.43" width="9.67" height="9.52"/><rect class="cls-4" x="9.68" y="161.9" width="9.67" height="9.53"/><rect class="cls-1" x="9.68" y="152.38" width="9.67" height="9.52"/><rect class="cls-2" x="9.68" y="142.86" width="9.67" height="9.52"/><rect class="cls-2" x="9.68" y="133.33" width="9.67" height="9.53"/><rect class="cls-1" x="9.68" y="123.81" width="9.67" height="9.52"/><rect class="cls-8" x="9.68" y="114.29" width="9.67" height="9.52"/><rect class="cls-1" x="9.68" y="104.76" width="9.67" height="9.53"/><rect class="cls-1" x="9.68" y="95.24" width="9.67" height="9.52"/><rect class="cls-1" x="9.68" y="85.71" width="9.67" height="9.53"/><rect class="cls-1" x="9.68" y="76.19" width="9.67" height="9.52"/><rect class="cls-2" x="9.68" y="66.67" width="9.67" height="9.52"/><rect class="cls-2" x="9.68" y="57.14" width="9.67" height="9.53"/><rect class="cls-1" x="9.68" y="47.62" width="9.67" height="9.52"/><rect x="9.68" y="38.1" width="9.67" height="9.52"/><rect class="cls-3" x="9.68" y="28.57" width="9.67" height="9.53"/><rect class="cls-3" x="9.68" y="19.05" width="9.67" height="9.52"/><rect class="cls-5" x="9.68" y="9.52" width="9.67" height="9.53"/><rect class="cls-5" x="9.68" width="9.67" height="9.52"/><rect class="cls-1" y="190.48" width="9.68" height="9.52"/><rect class="cls-1" y="180.95" width="9.68" height="9.53"/><rect class="cls-1" y="171.43" width="9.68" height="9.52"/><rect class="cls-1" y="161.9" width="9.68" height="9.53"/><rect class="cls-1" y="152.38" width="9.68" height="9.52"/><rect class="cls-1" y="142.86" width="9.68" height="9.52"/><rect class="cls-1" y="133.33" width="9.68" height="9.53"/><rect class="cls-1" y="123.81" width="9.68" height="9.52"/><rect class="cls-1" y="114.29" width="9.68" height="9.52"/><rect class="cls-1" y="104.76" width="9.68" height="9.53"/><rect class="cls-1" y="95.24" width="9.68" height="9.52"/><rect class="cls-1" y="85.71" width="9.68" height="9.53"/><rect class="cls-1" y="76.19" width="9.68" height="9.52"/><rect class="cls-1" y="66.67" width="9.68" height="9.52"/><rect class="cls-2" y="57.14" width="9.68" height="9.53"/><rect class="cls-1" y="47.62" width="9.68" height="9.52"/><rect y="38.1" width="9.68" height="9.52"/><rect class="cls-3" y="28.57" width="9.68" height="9.53"/><rect class="cls-3" y="19.05" width="9.68" height="9.52"/><rect class="cls-5" y="9.52" width="9.68" height="9.53"/><rect class="cls-5" width="9.68" height="9.52"/></g></svg>