<?xml version="1.0" encoding="utf-8"?>
<!-- Generator: Adobe Illustrator 23.0.1, SVG Export Plug-In . SVG Version: 6.00 Build 0)  -->
<svg version="1.1" id="Layer_1" xmlns="http://www.w3.org/2000/svg" xmlns:xlink="http://www.w3.org/1999/xlink" x="0px" y="0px"
	 viewBox="0 0 500.5 450.5" style="enable-background:new 0 0 500.5 450.5;" xml:space="preserve">
<style type="text/css">
	.st0{fill:#ED2024;}
	.st1{fill:#212121;}
	.st2{fill:#FFFFFF;}
	.st3{fill:#3953A4;}
	.st4{fill:none;stroke:#212121;stroke-width:0.5;stroke-miterlimit:10;}
</style>
<g>
	<title>desk</title>
	<rect x="450.3" y="400.3" class="st0" width="50" height="50"/>
	<rect x="450.3" y="350.3" class="st0" width="50" height="50"/>
	<rect x="450.3" y="300.3" class="st1" width="50" height="50"/>
	<rect x="450.3" y="250.3" class="st0" width="50" height="50"/>
	<rect x="450.3" y="200.3" class="st2" width="50" height="50"/>
	<rect x="450.3" y="150.3" class="st2" width="50" height="50"/>
	<rect x="450.3" y="100.3" class="st1" width="50" height="50"/>
	<rect x="450.3" y="50.3" class="st1" width="50" height="50"/>
	<rect x="450.3" y="0.3" class="st1" width="50" height="50"/>
	<rect x="400.3" y="400.3" class="st0" width="50" height="50"/>
	<rect x="400.3" y="350.3" class="st0" width="50" height="50"/>
	<rect x="400.3" y="300.3" class="st1" width="50" height="50"/>
	<rect x="400.3" y="250.3" class="st2" width="50" height="50"/>
	<rect x="400.3" y="200.3" class="st0" width="50" height="50"/>
	<rect x="400.3" y="150.3" class="st2" width="50" height="50"/>
	<rect x="400.3" y="100.3" class="st1" width="50" height="50"/>
	<rect x="400.3" y="50.3" class="st1" width="50" height="50"/>
	<rect x="400.3" y="0.3" class="st1" width="50" height="50"/>
	<rect x="350.3" y="400.3" class="st1" width="50" height="50"/>
	<rect x="350.3" y="350.3" class="st1" width="50" height="50"/>
	<rect x="350.3" y="300.3" class="st1" width="50" height="50"/>
	<rect x="350.3" y="250.3" class="st2" width="50" height="50"/>
	<rect x="350.3" y="200.3" class="st0" width="50" height="50"/>
	<rect x="350.3" y="150.3" class="st2" width="50" height="50"/>
	<rect x="350.3" y="100.3" class="st1" width="50" height="50"/>
	<rect x="350.3" y="50.3" class="st1" width="50" height="50"/>
	<rect x="350.3" y="0.3" class="st1" width="50" height="50"/>
	<rect x="300.3" y="400.3" class="st1" width="50" height="50"/>
	<rect x="300.3" y="350.3" class="st1" width="50" height="50"/>
	<rect x="300.3" y="300.3" class="st1" width="50" height="50"/>
	<rect x="300.3" y="250.3" class="st2" width="50" height="50"/>
	<rect x="300.3" y="200.3" class="st0" width="50" height="50"/>
	<rect x="300.3" y="150.3" class="st2" width="50" height="50"/>
	<rect x="300.3" y="100.3" class="st1" width="50" height="50"/>
	<rect x="300.3" y="50.3" class="st1" width="50" height="50"/>
	<rect x="300.3" y="0.3" class="st1" width="50" height="50"/>
	<rect x="250.3" y="400.3" class="st1" width="50" height="50"/>
	<rect x="250.3" y="350.3" class="st1" width="50" height="50"/>
	<rect x="250.3" y="300.3" class="st1" width="50" height="50"/>
	<rect x="250.3" y="250.3" class="st2" width="50" height="50"/>
	<rect x="250.3" y="200.3" class="st0" width="50" height="50"/>
	<rect x="250.3" y="150.3" class="st2" width="50" height="50"/>
	<rect x="250.3" y="100.3" class="st1" width="50" height="50"/>
	<rect x="250.3" y="50.3" class="st1" width="50" height="50"/>
	<rect x="250.3" y="0.3" class="st1" width="50" height="50"/>
	<rect x="200.3" y="400.3" class="st1" width="50" height="50"/>
	<rect x="200.3" y="350.3" class="st1" width="50" height="50"/>
	<rect x="200.3" y="300.3" class="st1" width="50" height="50"/>
	<rect x="200.3" y="250.3" class="st2" width="50" height="50"/>
	<rect x="200.3" y="200.3" class="st3" width="50" height="50"/>
	<rect x="200.3" y="150.3" class="st2" width="50" height="50"/>
	<rect x="200.3" y="100.3" class="st1" width="50" height="50"/>
	<rect x="200.3" y="50.3" class="st1" width="50" height="50"/>
	<rect x="200.3" y="0.3" class="st1" width="50" height="50"/>
	<rect x="150.3" y="400.3" class="st1" width="50" height="50"/>
	<rect x="150.3" y="350.3" class="st1" width="50" height="50"/>
	<rect x="150.3" y="300.3" class="st1" width="50" height="50"/>
	<rect x="150.3" y="250.3" class="st2" width="50" height="50"/>
	<rect x="150.3" y="200.3" class="st3" width="50" height="50"/>
	<rect x="150.3" y="150.3" class="st2" width="50" height="50"/>
	<rect x="150.3" y="100.3" class="st1" width="50" height="50"/>
	<rect x="150.3" y="50.3" class="st1" width="50" height="50"/>
	<rect x="150.3" y="0.3" class="st1" width="50" height="50"/>
	<rect x="100.3" y="400.3" class="st1" width="50" height="50"/>
	<rect x="100.3" y="350.3" class="st1" width="50" height="50"/>
	<rect x="100.3" y="300.3" class="st1" width="50" height="50"/>
	<rect x="100.3" y="250.3" class="st2" width="50" height="50"/>
	<rect x="100.3" y="200.3" class="st3" width="50" height="50"/>
	<rect x="100.3" y="150.3" class="st2" width="50" height="50"/>
	<rect x="100.3" y="100.3" class="st1" width="50" height="50"/>
	<rect x="100.3" y="50.3" class="st1" width="50" height="50"/>
	<rect x="100.3" y="0.3" class="st1" width="50" height="50"/>
	<rect x="50.3" y="400.3" class="st1" width="50" height="50"/>
	<rect x="50.3" y="350.3" class="st1" width="50" height="50"/>
	<rect x="50.3" y="300.3" class="st1" width="50" height="50"/>
	<rect x="50.3" y="250.3" class="st2" width="50" height="50"/>
	<rect x="50.3" y="200.3" class="st3" width="50" height="50"/>
	<rect x="50.3" y="150.3" class="st2" width="50" height="50"/>
	<rect x="50.3" y="100.3" class="st1" width="50" height="50"/>
	<rect x="50.3" y="50.3" class="st3" width="50" height="50"/>
	<rect x="50.3" y="0.3" class="st3" width="50" height="50"/>
	<rect x="0.3" y="400.3" class="st1" width="50" height="50"/>
	<rect x="0.3" y="350.3" class="st1" width="50" height="50"/>
	<rect x="0.3" y="300.3" class="st1" width="50" height="50"/>
	<rect x="0.3" y="250.3" class="st2" width="50" height="50"/>
	<rect x="0.3" y="200.3" class="st2" width="50" height="50"/>
	<rect x="0.3" y="150.3" class="st3" width="50" height="50"/>
	<rect x="0.3" y="100.3" class="st1" width="50" height="50"/>
	<rect x="0.3" y="50.3" class="st3" width="50" height="50"/>
	<rect x="0.3" y="0.3" class="st3" width="50" height="50"/>
	<polygon class="st4" points="0.3,50.3 0.3,0.3 50.3,0.3 100.3,0.3 150.3,0.3 200.3,0.3 250.3,0.3 300.3,0.3 350.3,0.3 400.3,0.3 
		450.3,0.3 500.3,0.3 500.3,50.3 500.3,100.3 500.3,150.3 500.3,200.3 500.3,250.3 500.3,300.3 500.3,350.3 500.3,400.3 
		500.3,450.3 450.3,450.3 400.3,450.3 350.3,450.3 300.3,450.3 250.3,450.3 200.3,450.3 150.3,450.3 100.3,450.3 50.3,450.3 
		0.3,450.3 0.3,400.3 0.3,350.3 0.3,300.3 0.3,250.3 0.3,200.3 0.3,150.3 0.3,100.3 	"/>
	<polyline class="st4" points="0.3,400.3 50.3,400.3 100.3,400.3 150.3,400.3 200.3,400.3 250.3,400.3 300.3,400.3 350.3,400.3 
		400.3,400.3 450.3,400.3 500.3,400.3 	"/>
	<polyline class="st4" points="0.3,350.3 50.3,350.3 100.3,350.3 150.3,350.3 200.3,350.3 250.3,350.3 300.3,350.3 350.3,350.3 
		400.3,350.3 450.3,350.3 500.3,350.3 	"/>
	<polyline class="st4" points="0.3,300.3 50.3,300.3 100.3,300.3 150.3,300.3 200.3,300.3 250.3,300.3 300.3,300.3 350.3,300.3 
		400.3,300.3 450.3,300.3 500.3,300.3 	"/>
	<polyline class="st4" points="0.3,250.3 50.3,250.3 100.3,250.3 150.3,250.3 200.3,250.3 250.3,250.3 300.3,250.3 350.3,250.3 
		400.3,250.3 450.3,250.3 500.3,250.3 	"/>
	<polyline class="st4" points="0.3,200.3 50.3,200.3 100.3,200.3 150.3,200.3 200.3,200.3 250.3,200.3 300.3,200.3 350.3,200.3 
		400.3,200.3 450.3,200.3 500.3,200.3 	"/>
	<polyline class="st4" points="0.3,150.3 50.3,150.3 100.3,150.3 150.3,150.3 200.3,150.3 250.3,150.3 300.3,150.3 350.3,150.3 
		400.3,150.3 450.3,150.3 500.3,150.3 	"/>
	<polyline class="st4" points="0.3,100.3 50.3,100.3 100.3,100.3 150.3,100.3 200.3,100.3 250.3,100.3 300.3,100.3 350.3,100.3 
		400.3,100.3 450.3,100.3 500.3,100.3 	"/>
	<polyline class="st4" points="0.3,50.3 50.3,50.3 100.3,50.3 150.3,50.3 200.3,50.3 250.3,50.3 300.3,50.3 350.3,50.3 400.3,50.3 
		450.3,50.3 500.3,50.3 	"/>
	<polyline class="st4" points="450.3,0.3 450.3,50.3 450.3,100.3 450.3,150.3 450.3,200.3 450.3,250.3 450.3,300.3 450.3,350.3 
		450.3,400.3 450.3,450.3 	"/>
	<polyline class="st4" points="400.3,0.3 400.3,50.3 400.3,100.3 400.3,150.3 400.3,200.3 400.3,250.3 400.3,300.3 400.3,350.3 
		400.3,400.3 400.3,450.3 	"/>
	<polyline class="st4" points="350.3,0.3 350.3,50.3 350.3,100.3 350.3,150.3 350.3,200.3 350.3,250.3 350.3,300.3 350.3,350.3 
		350.3,400.3 350.3,450.3 	"/>
	<polyline class="st4" points="300.3,0.3 300.3,50.3 300.3,100.3 300.3,150.3 300.3,200.3 300.3,250.3 300.3,300.3 300.3,350.3 
		300.3,400.3 300.3,450.3 	"/>
	<polyline class="st4" points="250.3,0.3 250.3,50.3 250.3,100.3 250.3,150.3 250.3,200.3 250.3,250.3 250.3,300.3 250.3,350.3 
		250.3,400.3 250.3,450.3 	"/>
	<polyline class="st4" points="200.3,0.3 200.3,50.3 200.3,100.3 200.3,150.3 200.3,200.3 200.3,250.3 200.3,300.3 200.3,350.3 
		200.3,400.3 200.3,450.3 	"/>
	<polyline class="st4" points="150.3,0.3 150.3,50.3 150.3,100.3 150.3,150.3 150.3,200.3 150.3,250.3 150.3,300.3 150.3,350.3 
		150.3,400.3 150.3,450.3 	"/>
	<polyline class="st4" points="100.3,0.3 100.3,50.3 100.3,100.3 100.3,150.3 100.3,200.3 100.3,250.3 100.3,300.3 100.3,350.3 
		100.3,400.3 100.3,450.3 	"/>
	<polyline class="st4" points="50.3,0.3 50.3,50.3 50.3,100.3 50.3,150.3 50.3,200.3 50.3,250.3 50.3,300.3 50.3,350.3 50.3,400.3 
		50.3,450.3 	"/>
</g>
</svg>
