<svg id="Layer_1" data-name="Layer 1" xmlns="http://www.w3.org/2000/svg" viewBox="0 0 500.5 450.5"><defs><style>.cls-1{fill:#ed2024;}.cls-2{fill:#212121;}.cls-3{fill:#ffffff;}.cls-4{fill:#3953a4;}.cls-5{fill:none;stroke:#212121;stroke-miterlimit:10;stroke-width:0.5px;}</style></defs><title>desk</title><rect class="cls-1" x="450.25" y="400.25" width="50" height="50"/><rect class="cls-1" x="450.25" y="350.25" width="50" height="50"/><rect class="cls-2" x="450.25" y="300.25" width="50" height="50"/><rect class="cls-1" x="450.25" y="250.25" width="50" height="50"/><rect class="cls-3" x="450.25" y="200.25" width="50" height="50"/><rect class="cls-3" x="450.25" y="150.25" width="50" height="50"/><rect class="cls-2" x="450.25" y="100.25" width="50" height="50"/><rect class="cls-2" x="450.25" y="50.25" width="50" height="50"/><rect class="cls-2" x="450.25" y="0.25" width="50" height="50"/><rect class="cls-1" x="400.25" y="400.25" width="50" height="50"/><rect class="cls-1" x="400.25" y="350.25" width="50" height="50"/><rect class="cls-2" x="400.25" y="300.25" width="50" height="50"/><rect class="cls-3" x="400.25" y="250.25" width="50" height="50"/><rect class="cls-1" x="400.25" y="200.25" width="50" height="50"/><rect class="cls-3" x="400.25" y="150.25" width="50" height="50"/><rect class="cls-2" x="400.25" y="100.25" width="50" height="50"/><rect class="cls-2" x="400.25" y="50.25" width="50" height="50"/><rect class="cls-2" x="400.25" y="0.25" width="50" height="50"/><rect class="cls-2" x="350.25" y="400.25" width="50" height="50"/><rect class="cls-2" x="350.25" y="350.25" width="50" height="50"/><rect class="cls-2" x="350.25" y="300.25" width="50" height="50"/><rect class="cls-3" x="350.25" y="250.25" width="50" height="50"/><rect class="cls-1" x="350.25" y="200.25" width="50" height="50"/><rect class="cls-3" x="350.25" y="150.25" width="50" height="50"/><rect class="cls-2" x="350.25" y="100.25" width="50" height="50"/><rect class="cls-2" x="350.25" y="50.25" width="50" height="50"/><rect class="cls-2" x="350.25" y="0.25" width="50" height="50"/><rect class="cls-2" x="300.25" y="400.25" width="50" height="50"/><rect class="cls-2" x="300.25" y="350.25" width="50" height="50"/><rect class="cls-2" x="300.25" y="300.25" width="50" height="50"/><rect class="cls-3" x="300.25" y="250.25" width="50" height="50"/><rect class="cls-1" x="300.25" y="200.25" width="50" height="50"/><rect class="cls-3" x="300.25" y="150.25" width="50" height="50"/><rect class="cls-2" x="300.25" y="100.25" width="50" height="50"/><rect class="cls-2" x="300.25" y="50.25" width="50" height="50"/><rect class="cls-2" x="300.25" y="0.25" width="50" height="50"/><rect class="cls-2" x="250.25" y="400.25" width="50" height="50"/><rect class="cls-2" x="250.25" y="350.25" width="50" height="50"/><rect class="cls-2" x="250.25" y="300.25" width="50" height="50"/><rect class="cls-3" x="250.25" y="250.25" width="50" height="50"/><rect class="cls-1" x="250.25" y="200.25" width="50" height="50"/><rect class="cls-3" x="250.25" y="150.25" width="50" height="50"/><rect class="cls-2" x="250.25" y="100.25" width="50" height="50"/><rect class="cls-2" x="250.25" y="50.25" width="50" height="50"/><rect class="cls-2" x="250.25" y="0.25" width="50" height="50"/><rect class="cls-2" x="200.25" y="400.25" width="50" height="50"/><rect class="cls-2" x="200.25" y="350.25" width="50" height="50"/><rect class="cls-2" x="200.25" y="300.25" width="50" height="50"/><rect class="cls-3" x="200.25" y="250.25" width="50" height="50"/><rect class="cls-4" x="200.25" y="200.25" width="50" height="50"/><rect class="cls-3" x="200.25" y="150.25" width="50" height="50"/><rect class="cls-2" x="200.25" y="100.25" width="50" height="50"/><rect class="cls-2" x="200.25" y="50.25" width="50" height="50"/><rect class="cls-2" x="200.25" y="0.25" width="50" height="50"/><rect class="cls-2" x="150.25" y="400.25" width="50" height="50"/><rect class="cls-2" x="150.25" y="350.25" width="50" height="50"/><rect class="cls-2" x="150.25" y="300.25" width="50" height="50"/><rect class="cls-3" x="150.25" y="250.25" width="50" height="50"/><rect class="cls-4" x="150.25" y="200.25" width="50" height="50"/><rect class="cls-3" x="150.25" y="150.25" width="50" height="50"/><rect class="cls-2" x="150.25" y="100.25" width="50" height="50"/><rect class="cls-2" x="150.25" y="50.25" width="50" height="50"/><rect class="cls-2" x="150.25" y="0.25" width="50" height="50"/><rect class="cls-2" x="100.25" y="400.25" width="50" height="50"/><rect class="cls-2" x="100.25" y="350.25" width="50" height="50"/><rect class="cls-2" x="100.25" y="300.25" width="50" height="50"/><rect class="cls-3" x="100.25" y="250.25" width="50" height="50"/><rect class="cls-4" x="100.25" y="200.25" width="50" height="50"/><rect class="cls-3" x="100.25" y="150.25" width="50" height="50"/><rect class="cls-2" x="100.25" y="100.25" width="50" height="50"/><rect class="cls-2" x="100.25" y="50.25" width="50" height="50"/><rect class="cls-2" x="100.25" y="0.25" width="50" height="50"/><rect class="cls-2" x="50.25" y="400.25" width="50" height="50"/><rect class="cls-2" x="50.25" y="350.25" width="50" height="50"/><rect class="cls-2" x="50.25" y="300.25" width="50" height="50"/><rect class="cls-3" x="50.25" y="250.25" width="50" height="50"/><rect class="cls-4" x="50.25" y="200.25" width="50" height="50"/><rect class="cls-3" x="50.25" y="150.25" width="50" height="50"/><rect class="cls-2" x="50.25" y="100.25" width="50" height="50"/><rect class="cls-4" x="50.25" y="50.25" width="50" height="50"/><rect class="cls-4" x="50.25" y="0.25" width="50" height="50"/><rect class="cls-2" x="0.25" y="400.25" width="50" height="50"/><rect class="cls-2" x="0.25" y="350.25" width="50" height="50"/><rect class="cls-2" x="0.25" y="300.25" width="50" height="50"/><rect class="cls-3" x="0.25" y="250.25" width="50" height="50"/><rect class="cls-3" x="0.25" y="200.25" width="50" height="50"/><rect class="cls-4" x="0.25" y="150.25" width="50" height="50"/><rect class="cls-2" x="0.25" y="100.25" width="50" height="50"/><rect class="cls-4" x="0.25" y="50.25" width="50" height="50"/><rect class="cls-4" x="0.25" y="0.25" width="50" height="50"/><polygon class="cls-5" points="0.25 50.25 0.25 0.25 50.25 0.25 100.25 0.25 150.25 0.25 200.25 0.25 250.25 0.25 300.25 0.25 350.25 0.25 400.25 0.25 450.25 0.25 500.25 0.25 500.25 50.25 500.25 100.25 500.25 150.25 500.25 200.25 500.25 250.25 500.25 300.25 500.25 350.25 500.25 400.25 500.25 450.25 450.25 450.25 400.25 450.25 350.25 450.25 300.25 450.25 250.25 450.25 200.25 450.25 150.25 450.25 100.25 450.25 50.25 450.25 0.25 450.25 0.25 400.25 0.25 350.25 0.25 300.25 0.25 250.25 0.25 200.25 0.25 150.25 0.25 100.25 0.25 50.25"/><polyline class="cls-5" points="0.25 400.25 50.25 400.25 100.25 400.25 150.25 400.25 200.25 400.25 250.25 400.25 300.25 400.25 350.25 400.25 400.25 400.25 450.25 400.25 500.25 400.25"/><polyline class="cls-5" points="0.25 350.25 50.25 350.25 100.25 350.25 150.25 350.25 200.25 350.25 250.25 350.25 300.25 350.25 350.25 350.25 400.25 350.25 450.25 350.25 500.25 350.25"/><polyline class="cls-5" points="0.25 300.25 50.25 300.25 100.25 300.25 150.25 300.25 200.25 300.25 250.25 300.25 300.25 300.25 350.25 300.25 400.25 300.25 450.25 300.25 500.25 300.25"/><polyline class="cls-5" points="0.25 250.25 50.25 250.25 100.25 250.25 150.25 250.25 200.25 250.25 250.25 250.25 300.25 250.25 350.25 250.25 400.25 250.25 450.25 250.25 500.25 250.25"/><polyline class="cls-5" points="0.25 200.25 50.25 200.25 100.25 200.25 150.25 200.25 200.25 200.25 250.25 200.25 300.25 200.25 350.25 200.25 400.25 200.25 450.25 200.25 500.25 200.25"/><polyline class="cls-5" points="0.25 150.25 50.25 150.25 100.25 150.25 150.25 150.25 200.25 150.25 250.25 150.25 300.25 150.25 350.25 150.25 400.25 150.25 450.25 150.25 500.25 150.25"/><polyline class="cls-5" points="0.25 100.25 50.25 100.25 100.25 100.25 150.25 100.25 200.25 100.25 250.25 100.25 300.25 100.25 350.25 100.25 400.25 100.25 450.25 100.25 500.25 100.25"/><polyline class="cls-5" points="0.25 50.25 50.25 50.25 100.25 50.25 150.25 50.25 200.25 50.25 250.25 50.25 300.25 50.25 350.25 50.25 400.25 50.25 450.25 50.25 500.25 50.25"/><polyline class="cls-5" points="450.25 0.25 450.25 50.25 450.25 100.25 450.25 150.25 450.25 200.25 450.25 250.25 450.25 300.25 450.25 350.25 450.25 400.25 450.25 450.25"/><polyline class="cls-5" points="400.25 0.25 400.25 50.25 400.25 100.25 400.25 150.25 400.25 200.25 400.25 250.25 400.25 300.25 400.25 350.25 400.25 400.25 400.25 450.25"/><polyline class="cls-5" points="350.25 0.25 350.25 50.25 350.25 100.25 350.25 150.25 350.25 200.25 350.25 250.25 350.25 300.25 350.25 350.25 350.25 400.25 350.25 450.25"/><polyline class="cls-5" points="300.25 0.25 300.25 50.25 300.25 100.25 300.25 150.25 300.25 200.25 300.25 250.25 300.25 300.25 300.25 350.25 300.25 400.25 300.25 450.25"/><polyline class="cls-5" points="250.25 0.25 250.25 50.25 250.25 100.25 250.25 150.25 250.25 200.25 250.25 250.25 250.25 300.25 250.25 350.25 250.25 400.25 250.25 450.25"/><polyline class="cls-5" points="200.25 0.25 200.25 50.25 200.25 100.25 200.25 150.25 200.25 200.25 200.25 250.25 200.25 300.25 200.25 350.25 200.25 400.25 200.25 450.25"/><polyline class="cls-5" points="150.25 0.25 150.25 50.25 150.25 100.25 150.25 150.25 150.25 200.25 150.25 250.25 150.25 300.25 150.25 350.25 150.25 400.25 150.25 450.25"/><polyline class="cls-5" points="100.25 0.25 100.25 50.25 100.25 100.25 100.25 150.25 100.25 200.25 100.25 250.25 100.25 300.25 100.25 350.25 100.25 400.25 100.25 450.25"/><polyline class="cls-5" points="50.25 0.25 50.25 50.25 50.25 100.25 50.25 150.25 50.25 200.25 50.25 250.25 50.25 300.25 50.25 350.25 50.25 400.25 50.25 450.25"/></svg>