<svg id="Layer_1" data-name="Layer 1" xmlns="http://www.w3.org/2000/svg" viewBox="0 0 221.00604 223.08461"><defs><style>.cls-1{fill:#b3b7bc;}.cls-2{fill:#606469;}.cls-3{fill:#fff;}.cls-4{fill:#231f20;}</style></defs><title>icon</title><polygon class="cls-1" points="120.86 145.385 120.85 158.915 120.51 159.135 120.01 158.815 120.01 144.845 120.51 145.165 120.85 145.375 120.86 145.385"/><path class="cls-1" d="M297.65008,420.95418" transform="translate(-187.14404 -309.40499)"/><polygon class="cls-1" points="100.85 144.945 100.85 158.915 100.51 159.135 100.01 158.815 100.01 145.475 100.51 145.165 100.85 144.945"/><polygon class="cls-1" points="100.51 0.245 101.01 0.005 101.01 0.485 100.85 144.945 100.51 145.165 100.01 145.475 100.01 158.815 100.51 159.135 0 223.085 0 182.685 50.66 150.635 51.01 150.415 51.53 150.085 70 138.285 70 56.575 44 67.535 44 27.445 100.01 0.485 100.51 0.245"/><polygon class="cls-1" points="221 182.815 221 223.085 120.51 159.135 120.85 158.915 120.86 145.385 120.85 145.375 120.51 145.165 120.01 144.845 120.01 0.005 120.51 0.245 121.01 0.485 177 27.445 177 67.535 151 56.575 151 138.285 221 182.815"/><polygon class="cls-2" points="151.006 42.61 151.006 56.57 177.006 67.53 177.006 53.57 151.006 42.61"/><polygon class="cls-3" points="151.006 138.28 151.006 138.4 177.216 155.03 151.006 138.28"/><polygon class="cls-3" points="151.006 138.28 177.216 155.03 221.006 182.81 151.006 138.28"/><polygon class="cls-2" points="120.516 159.13 221.006 223.08 221.006 209.12 120.866 145.38 120.856 158.91 120.516 159.13"/><polygon class="cls-2" points="120.016 144.84 120.016 158.81 120.516 159.13 120.856 158.91 120.866 145.38 120.856 145.37 120.516 145.16 120.016 144.84"/><polygon class="cls-1" points="120.866 145.38 221.006 209.12 221.006 182.81 177.216 155.03 151.006 138.4 151.006 42.61 177.006 53.57 177.006 27.44 121.016 0.48 121.016 13.96 120.866 145.38"/><polygon class="cls-1" points="120.016 0 120.016 144.84 120.516 145.16 120.856 145.37 120.866 145.38 121.016 13.96 121.016 0.48 120.516 0.24 120.016 0"/><path class="cls-4" d="M297.6521,420.95" transform="translate(-187.14404 -309.40499)"/><polygon class="cls-1" points="44.006 53.57 44.006 67.53 70.006 56.57 70.006 42.61 44.006 53.57"/><polygon class="cls-3" points="0.006 182.68 0.006 182.81 43.796 155.03 0.006 182.68"/><polygon class="cls-1" points="0.006 209.12 0.006 223.08 100.516 159.13 100.016 158.81 100.016 145.47 0.006 209.12"/><polygon class="cls-1" points="100.016 145.47 100.016 158.81 100.516 159.13 100.856 158.91 100.856 144.94 100.516 145.16 100.016 145.47"/><polygon class="cls-3" points="0.006 182.81 0.006 209.12 100.016 145.47 100.016 0.48 44.006 27.44 44.006 53.57 70.006 42.61 70.006 138.28 51.536 150.08 70.006 138.4 43.796 155.03 0.006 182.81"/><polygon class="cls-3" points="100.516 0.24 100.016 0.48 100.016 145.47 100.516 145.16 100.856 144.94 101.016 0.48 101.016 0 100.516 0.24"/><polygon class="cls-3" points="43.796 155.03 70.006 138.4 51.536 150.08 51.016 150.41 50.666 150.63 43.796 155.03"/></svg>