<svg id="Layer_1" data-name="Layer 1" xmlns="http://www.w3.org/2000/svg" viewBox="0 0 221 223.08002"><defs><style>.cls-1{fill:#3d4042;}.cls-2{fill:#202124;}.cls-3{fill:#393d3e;}.cls-4{fill:#3c3f41;}.cls-5{fill:#231f20;}.cls-6{fill:#414549;}.cls-7{fill:#595c61;}</style></defs><title>icon-dark</title><polygon class="cls-1" points="70 138.28 70 138.4 43.79 155.03 70 138.28"/><polygon class="cls-1" points="100.99 0 100.99 158.81 100.49 159.13 0 223.08 0 182.81 70 138.28 43.79 155.03 70 138.4 70 56.57 44 67.53 44 27.44 99.99 0.48 100.99 0"/><polygon class="cls-1" points="221 182.68 221 223.08 120.49 159.13 120.15 158.91 120.15 144.94 119.99 0.48 119.99 0 120.99 0.48 177 27.44 177 67.53 151 56.57 151 138.28 169.47 150.08 169.99 150.41 170.34 150.63 221 182.68"/><path class="cls-1" d="M297.638,420.95454" transform="translate(-187.138 -309.40499)"/><polygon class="cls-2" points="70 42.61 70 56.57 44 67.53 44 53.57 70 42.61"/><polygon class="cls-3" points="70 138.28 70 138.4 43.79 155.03 70 138.28"/><polygon class="cls-4" points="70 138.28 43.79 155.03 0 182.81 70 138.28"/><polygon class="cls-2" points="100.49 159.13 0 223.08 0 209.12 100.14 145.38 100.15 158.91 100.49 159.13"/><polygon class="cls-2" points="100.99 144.84 100.99 158.81 100.49 159.13 100.15 158.91 100.14 145.38 100.15 145.37 100.49 145.16 100.99 144.84"/><polygon class="cls-1" points="100.14 145.38 0 209.12 0 182.81 43.79 155.03 70 138.4 70 42.61 44 53.57 44 27.44 99.99 0.48 99.99 13.96 100.14 145.38"/><polygon class="cls-4" points="100.99 0 100.99 144.84 100.49 145.16 100.15 145.37 100.14 145.38 99.99 13.96 99.99 0.48 100.49 0.24 100.99 0"/><path class="cls-5" d="M297.636,420.95" transform="translate(-187.138 -309.40499)"/><polygon class="cls-1" points="177 53.57 177 67.53 151 56.57 151 42.61 177 53.57"/><polygon class="cls-6" points="221 182.68 221 182.81 177.21 155.03 221 182.68"/><polygon class="cls-7" points="221 182.68 177.21 155.03 151 138.4 169.47 150.08 169.99 150.41 170.34 150.63 221 182.68"/><polygon class="cls-1" points="221 209.12 221 223.08 120.49 159.13 120.99 158.81 120.99 145.47 221 209.12"/><polygon class="cls-6" points="120.99 145.47 120.99 158.81 120.49 159.13 120.15 158.91 120.15 144.94 120.49 145.16 120.99 145.47"/><polygon class="cls-7" points="221 182.81 221 209.12 120.99 145.47 120.99 0.48 177 27.44 177 53.57 151 42.61 151 138.28 169.47 150.08 151 138.4 177.21 155.03 221 182.81"/><polygon class="cls-7" points="120.49 0.24 120.99 0.48 120.99 145.47 120.49 145.16 120.15 144.94 119.99 0.48 119.99 0 120.49 0.24"/><polygon class="cls-7" points="177.21 155.03 151 138.4 169.47 150.08 169.99 150.41 170.34 150.63 177.21 155.03"/></svg>