<svg id="Layer_1" data-name="Layer 1" xmlns="http://www.w3.org/2000/svg" viewBox="0 0 500 500"><defs><style>.cls-1{fill:#0d47a1;}.cls-2{fill:#0288d1;}</style></defs><title>icon-dark</title><polygon class="cls-1" points="500 125 428.57 250 357.14 375 285.71 500 142.86 500 71.43 375 0 250 142.86 250 214.29 375 285.71 250 357.14 125 214.29 125 142.86 0 428.57 0 500 125"/><polygon class="cls-2" points="428.57 250 357.14 375 285.71 500 214.29 375 285.71 250 357.14 125 428.57 250"/><polygon class="cls-1" points="500 125 428.57 250 357.14 125 500 125"/><polygon class="cls-2" points="500 125 214.29 125 142.86 0 428.57 0 500 125"/><polygon class="cls-1" points="285.71 500 142.86 500 71.43 375 0 250 142.86 250 214.29 375 285.71 500"/></svg>