<svg id="Layer_1" data-name="Layer 1" xmlns="http://www.w3.org/2000/svg" viewBox="0 0 397.89001 61.00995"><defs><style>.cls-1{fill:#fff;}</style></defs><title>logo</title><path class="cls-1" d="M272,501.5a29.47308,29.47308,0,0,1-21.32,9.08h-8.14v-4.07h8.14A25.63275,25.63275,0,0,0,269.17,498.65a26.52365,26.52365,0,0,0-19.09-45.01h-7.54v-4.06h7.45a30.73139,30.73139,0,0,1,21.35,8.69A30.42886,30.42886,0,0,1,272,501.5Z" transform="translate(-2.69 -449.57001)"/><rect class="cls-1" x="83.27997" y="0.00995" width="38" height="4"/><rect class="cls-1" x="83.27997" y="57.00995" width="38" height="4"/><rect class="cls-1" x="83.27997" y="29.00995" width="38" height="4"/><rect class="cls-1" x="297.98999" y="0.00995" width="38" height="4"/><rect class="cls-1" x="297.98999" y="29.00995" width="38" height="4"/><rect class="cls-1" x="297.98999" y="57.00995" width="38" height="4"/><polygon class="cls-1" points="397.89 0.01 378.61 61.01 375.28 61.01 356 0.01 360.18 0.01 376.94 53.01 393.7 0.01 397.89 0.01"/><path class="cls-1" d="M177.13,481.95a16.63715,16.63715,0,0,1,5.42,12.36c0,8.97-6.89,16.26-15.37,16.26h-23.2v-4h22.78c6.25,0,11.33-5.39,11.33-12.01,0-6.61-5.08-11.99-11.33-11.99h-17.2v-5h17.2c6.25,0,11.33-5.38,11.33-12s-5.08-12-11.33-12H143.98v-4h23.2c8.48,0,15.37,7.3,15.37,16.27a16.67023,16.67023,0,0,1-5.42,12.39l-2.07,1.86Z" transform="translate(-2.69 -449.57001)"/><polygon class="cls-1" points="64.26 0 44.98 61 41.64 61 32.13 30.91 22.62 61 19.28 61 0 0 4.19 0 18.57 45.47 20.97 52.94 30.79 21.86 33.46 21.86 43.31 53 60.07 0 64.26 0"/><path class="cls-1" d="M214.94,480.58a3.3,3.3,0,1,1-3.3-3.3A3.29474,3.29474,0,0,1,214.94,480.58Z" transform="translate(-2.69 -449.57001)"/></svg>
