<svg id="Layer_1" data-name="Layer 1" xmlns="http://www.w3.org/2000/svg" xmlns:xlink="http://www.w3.org/1999/xlink" viewBox="0 0 140.87 153.7"><defs><style>.cls-1{fill:none;}.cls-2{clip-path:url(#clip-path);}.cls-3{fill:#002a5a;}.cls-4{fill:#c6c6c6;}</style><clipPath id="clip-path" transform="translate(-32.58 -0.17)"><rect class="cls-1" x="-317.93" y="-171.7" width="841.89" height="595.28"/></clipPath></defs><title>loader</title><g class="cls-2"><path class="cls-3" d="M130.46,25.55l-1.83,1.25a31,31,0,0,0-3.72,3c0-.46.08-.92.1-1.39v-.9A22,22,0,1,0,83.87,38.37l.18.31A27.28,27.28,0,0,1,87.57,50.3c0,.66.07,1.32.07,2a27.33,27.33,0,0,1-8.06,19.45,27.68,27.68,0,0,1-4,3.34l-2-1a30.63,30.63,0,0,0-4.45-1.75q.72-.32,1.41-.7.52-.27,1-.58l.33-.21,1-.65.63-.46c.31-.23.61-.48.91-.73s.59-.51.87-.78c.47-.44.92-.91,1.35-1.4s.68-.79,1-1.2l.46-.63.44-.64L79,63.7l.2-.33.2-.34c.13-.23.25-.46.37-.69l.16-.31.06-.13.12-.25q.18-.37.34-.76l.13-.31v-.07l.13-.33.14-.37.1-.28,0-.15.07-.21.13-.41a1.72,1.72,0,0,1,.14-.46,2.31,2.31,0,0,0,.08-.3v-.13a1,1,0,0,1,.08-.29q.1-.41.19-.83a.51.51,0,0,1,.06-.29v-.4a2.67,2.67,0,0,1,.08-.48c0-.16,0-.36.08-.54a3.54,3.54,0,0,1,0-.48c0-.16,0-.21,0-.32V52.85h0V52.3A21.85,21.85,0,0,0,79,41.44l-.17-.3a27.28,27.28,0,0,1-3.51-11.6c0-.66-.07-1.32-.07-2a27.51,27.51,0,0,1,54.94-1.95" transform="translate(-32.58 -0.17)"/><path class="cls-4" d="M127.07,113.12c-.15-.24-.29-.49-.43-.74a22,22,0,0,1,8.65-29.89q.8-.44,1.63-.81a30.57,30.57,0,0,1-4.45-1.75l-2-1a27.7,27.7,0,0,0-4,3.34,27.32,27.32,0,0,0-8.06,19.45q0,1,.07,2a27.26,27.26,0,0,0,3.4,11.41c.15.24.29.49.42.73a22,22,0,1,1-41.15,8.34,31,31,0,0,1-3.72,3l-1.83,1.25a27.51,27.51,0,0,0,54.94-1.94,19.09,19.09,0,0,0-.07-2,27.27,27.27,0,0,0-3.4-11.41" transform="translate(-32.58 -0.17)"/><path class="cls-4" d="M79.59,82.3A27.49,27.49,0,0,0,72.17,77h0a27.37,27.37,0,0,0-11.7-2.7h-.66A22,22,0,1,1,73.07,34.45a31.15,31.15,0,0,1-.71-4.73l-.16-2.2A27.52,27.52,0,1,0,59.82,79.76h.66A22,22,0,0,1,82.19,102q0,1-.12,2a31.17,31.17,0,0,1,3.72-3l1.83-1.25a27.29,27.29,0,0,0-8-17.5" transform="translate(-32.58 -0.17)"/><path class="cls-4" d="M165.34,32.81a27.52,27.52,0,0,0-34.89-3.32,27.87,27.87,0,0,0-8.17,8.64q-.2.37-.42.73a22,22,0,0,1-30.2,7.5q-.82-.49-1.59-1.06A31,31,0,0,1,90.78,50l.16,2.2a27.58,27.58,0,0,0,27.49-2,27.87,27.87,0,0,0,8.17-8.64l.42-.74A22,22,0,1,1,154.89,72.3a30.43,30.43,0,0,1,4.46,1.75l2,1a27.6,27.6,0,0,0,4-42.23" transform="translate(-32.58 -0.17)"/><path class="cls-3" d="M165.34,82.3a27.55,27.55,0,0,0-7.42-5.3h0a27.39,27.39,0,0,0-11.7-2.75h-.66a22,22,0,0,1-21.68-22.32q0-1,.12-2a31.16,31.16,0,0,1-3.72,3l-1.83,1.25a27.46,27.46,0,0,0,27.11,25.55h.66A22,22,0,1,1,133,119.58a30.92,30.92,0,0,1,.7,4.73l.16,2.2a27.51,27.51,0,0,0,31.5-44.21" transform="translate(-32.58 -0.17)"/><path class="cls-3" d="M115.22,104l-.16-2.2a27.57,27.57,0,0,0-35.8,10.88l-.17.3A22,22,0,1,1,51.15,81.7a30.36,30.36,0,0,1-4.46-1.75l-2-1a27.52,27.52,0,1,0,39.2,36.68l.18-.33a22,22,0,0,1,30.13-7.77q.89.52,1.72,1.13a30.92,30.92,0,0,1-.7-4.73" transform="translate(-32.58 -0.17)"/></g></svg>