<svg id="Layer_1" data-name="Layer 1" xmlns="http://www.w3.org/2000/svg" viewBox="0 0 208.8 210.01"><defs><style>.cls-1{fill:#e4520b;}.cls-2{fill:#a54119;}</style></defs><title>character</title><path class="cls-1" d="M250.24,322.09a41,41,0,0,0-37.58,33.52,112.22,112.22,0,0,1-67.06-65,41,41,0,0,0,0-81.24,112.23,112.23,0,0,1,63.78-63.77A41,41,0,0,0,249.77,181l.08,25a44,44,0,0,0,.15,88h.15Z" transform="translate(-145.6 -145.6)"/><path class="cls-2" d="M354.4,290.62a112.26,112.26,0,0,1-61.51,62.86A41,41,0,0,0,253,322q-1.39,0-2.76.09L250.15,294a44,44,0,0,0-.15-88h-.15l-.08-25H250a41,41,0,0,0,40.62-35.4,112.28,112.28,0,0,1,63.78,63.78,41,41,0,0,0,0,81.24Z" transform="translate(-145.6 -145.6)"/><path class="cls-2" d="M250.15,294H250a44,44,0,0,1-.15-88Z" transform="translate(-145.6 -145.6)"/><path class="cls-1" d="M294,250a44,44,0,0,1-43.85,44l-.3-88H250A44,44,0,0,1,294,250Z" transform="translate(-145.6 -145.6)"/></svg>
