<svg id="Layer_1" data-name="Layer 1" xmlns="http://www.w3.org/2000/svg" viewBox="0 0 158.99 159.64"><defs><style>.cls-1{fill:#e4520b;}.cls-2{fill:none;stroke:#e4520b;stroke-miterlimit:10;stroke-width:40px;}</style></defs><title>characters</title><path class="cls-1" d="M254.79,198a59.1,59.1,0,0,1,41.53,16.89l.65.65a59.5,59.5,0,0,1,.2,83.72l-.3.3a59.49,59.49,0,0,1-84.16,0l-.29-.29a59.61,59.61,0,0,1,.24-83.76l.08-.07.27-.26A59.09,59.09,0,0,1,254.79,198M255,300a42,42,0,1,0-42-42,42,42,0,0,0,42,42m-.21-122a79.21,79.21,0,0,0-55.85,22.94l-.36.35a79.49,79.49,0,0,0-.35,112.07l.35.35a79.49,79.49,0,0,0,112.43,0l.35-.35a79.5,79.5,0,0,0-.21-111.92l-.14-.15A79.26,79.26,0,0,0,254.79,178ZM255,280a22,22,0,1,1,22-22,22,22,0,0,1-22,22Z" transform="translate(-175.29 -177.35)"/><line class="cls-2" x1="47.44" y1="47.38" x2="14.2" y2="14.14"/><line class="cls-2" x1="144.21" y1="144.15" x2="110.98" y2="110.92"/><line class="cls-2" x1="47.44" y1="111.5" x2="14.2" y2="144.74"/><line class="cls-2" x1="144.8" y1="15.14" x2="111.56" y2="48.38"/><path class="cls-1" d="M290.44,222.15l-.29-.3a50,50,0,0,0-70.5-.2l-.21.2a50,50,0,0,0-.2,70.5l.2.21a50,50,0,0,0,70.71,0l.2-.21A50,50,0,0,0,290.44,222.15ZM255,280a22,22,0,1,1,22-22A22,22,0,0,1,255,280Z" transform="translate(-175.29 -177.35)"/></svg>
