<?xml version="1.0" encoding="utf-8"?>
<!-- Generator: Adobe Illustrator 21.0.0, SVG Export Plug-In . SVG Version: 6.00 Build 0)  -->
<svg version="1.1" xmlns="http://www.w3.org/2000/svg" xmlns:xlink="http://www.w3.org/1999/xlink" x="0px" y="0px"
	 viewBox="0 0 283 283" style="enable-background:new 0 0 283 283;" xml:space="preserve">
<style type="text/css">
	.st0{fill:#FDFF7A;stroke:#000000;stroke-width:13;stroke-miterlimit:10;}
	.st1{fill:#E4520B;stroke:#000000;stroke-width:13;stroke-miterlimit:10;}
	.st2{fill:#FCFCFC;stroke:#000000;stroke-width:13;stroke-miterlimit:10;}
	.st3{fill:none;stroke:#000000;stroke-width:13;stroke-miterlimit:10;}
</style>
<g id="Layer_1">
	<title>character</title>
	<rect x="6.5" y="6.5" class="st0" width="135.5" height="270"/>
	<rect x="54.5" y="106.5" class="st1" width="54" height="54"/>
	<rect x="55.5" y="9.5" class="st2" width="86.5" height="54"/>
	<line class="st3" x1="141.5" y1="57" x2="141.5" y2="13"/>
	<line class="st3" x1="99.5" y1="59" x2="99.5" y2="15"/>
	<line class="st3" x1="182.5" y1="264" x2="100.5" y2="264"/>
	<line class="st3" x1="162.8" y1="251" x2="120.3" y2="251"/>
</g>
<g id="Layer_2">
	<rect x="6.5" y="6.5" class="st1" width="0.5" height="270"/>
	<rect x="142" y="6.5" class="st1" width="134.5" height="270"/>
	<rect x="174.5" y="106.5" class="st0" width="54" height="54"/>
	<rect x="142" y="9.5" class="st2" width="85.5" height="54"/>
	<line class="st3" x1="141.5" y1="57" x2="141.5" y2="13"/>
	<line class="st3" x1="99.5" y1="59" x2="99.5" y2="15"/>
	<line class="st3" x1="184.5" y1="59" x2="184.5" y2="15"/>
	<line class="st3" x1="182.5" y1="264" x2="100.5" y2="264"/>
	<line class="st3" x1="162.8" y1="251" x2="120.3" y2="251"/>
</g>
</svg>
