<?xml version="1.0" encoding="utf-8"?>
<!-- Generator: Adobe Illustrator 21.0.0, SVG Export Plug-In . SVG Version: 6.00 Build 0)  -->
<svg version="1.1" id="Layer_1" xmlns="http://www.w3.org/2000/svg" xmlns:xlink="http://www.w3.org/1999/xlink" x="0px" y="0px"
	 viewBox="0 0 283 283" style="enable-background:new 0 0 283 283;" xml:space="preserve">
<style type="text/css">
	.st0{fill:#383838;stroke:#000000;stroke-width:13;stroke-miterlimit:10;}
	.st1{stroke:#000000;stroke-width:13;stroke-miterlimit:10;}
	.st2{fill:#FF0000;stroke:#000000;stroke-width:13;stroke-miterlimit:10;}
	.st3{fill:#FFFFFF;stroke:#000000;stroke-width:13;stroke-miterlimit:10;}
	.st4{fill:#EFEFEF;stroke:#000000;stroke-width:13;stroke-miterlimit:10;}
	.st5{fill:#D300FF;stroke:#000000;stroke-width:13;stroke-miterlimit:10;}
</style>
<title>character</title>
<rect x="6.5" y="6.5" class="st0" width="270" height="270"/>
<rect x="47" y="10" class="st1" width="189" height="54.7"/>
<rect x="50.5" y="116.5" transform="matrix(-1 -8.977587e-11 8.977587e-11 -1 163 263)" class="st2" width="62" height="30"/>
<rect x="170.5" y="116.5" transform="matrix(-1 -8.977587e-11 8.977587e-11 -1 403 263)" class="st2" width="62" height="30"/>
<polygon class="st3" points="47,63.7 47,53.8 74.3,26.5 91.5,9.3 108.7,26.5 141.5,59.3 146,63.7 "/>
<polygon class="st4" points="137,63.7 141.5,59.3 173.8,27 191.5,9.3 209.2,27 236,53.8 236,63.7 "/>
<polygon class="st1" points="216.3,249.2 141,174 66.8,248.3 "/>
<circle class="st5" cx="141.5" cy="235" r="29"/>
</svg>
