<?xml version="1.0" encoding="utf-8"?>
<!-- Generator: Adobe Illustrator 21.0.0, SVG Export Plug-In . SVG Version: 6.00 Build 0)  -->
<svg version="1.1" id="Layer_1" xmlns="http://www.w3.org/2000/svg" xmlns:xlink="http://www.w3.org/1999/xlink" x="0px" y="0px"
	 viewBox="0 0 283 283" style="enable-background:new 0 0 283 283;" xml:space="preserve">
<style type="text/css">
	.st0{fill:#FF00F9;}
	.st1{fill:#FF0000;}
	.st2{fill:#FFFF00;}
	.st3{fill:#2CFF00;}
	.st4{fill:none;stroke:#000000;stroke-width:13;stroke-miterlimit:10;}
	.st5{fill:#FFFFFF;stroke:#000000;stroke-width:13;stroke-miterlimit:10;}
</style>
<title>character</title>
<rect x="207.8" y="6.5" transform="matrix(-1 -8.979097e-11 8.979097e-11 -1 483 283)" class="st0" width="67.5" height="270"/>
<rect x="140.8" y="6.5" transform="matrix(-1 -8.979097e-11 8.979097e-11 -1 349 283)" class="st1" width="67.5" height="270"/>
<rect x="73.8" y="6.5" transform="matrix(-1 -8.979097e-11 8.979097e-11 -1 215 283)" class="st2" width="67.5" height="270"/>
<rect x="6.8" y="6.5" transform="matrix(-1 -8.979097e-11 8.979097e-11 -1 81 283)" class="st3" width="67.5" height="270"/>
<rect x="6.5" y="6.5" class="st4" width="270" height="270"/>
<rect x="174.5" y="86.5" class="st5" width="54" height="54"/>
<rect x="54.5" y="86.5" class="st5" width="54" height="54"/>
</svg>
